<?xml version="1.0" encoding="UTF-8"?>
<svg version="1.1" xmlns="http://www.w3.org/2000/svg" width="289" height="130">
<path d="M0 0 C5.54624296 3.8443003 10.13376375 7.76870524 14.15234375 13.19921875 C14.15234375 13.85921875 14.15234375 14.51921875 14.15234375 15.19921875 C14.81234375 14.53921875 15.47234375 13.87921875 16.15234375 13.19921875 C16.61382812 12.74417969 17.0753125 12.28914063 17.55078125 11.8203125 C18.68622777 10.67101907 19.79312484 9.49319976 20.87890625 8.296875 C25.97974937 2.82868721 31.3984313 -0.63078348 38.15234375 -3.80078125 C38.94898437 -4.1771875 39.745625 -4.55359375 40.56640625 -4.94140625 C48.20925702 -7.48132645 57.39390191 -6.63953017 64.640625 -3.26171875 C72.4892453 1.30341965 79.46346289 6.3285973 84.15234375 14.19921875 C87.54774809 13.0674173 88.30592227 12.09564676 90.52734375 9.38671875 C97.27384119 1.47120401 106.09410807 -5.13300538 116.703125 -6.13671875 C124.5041515 -6.21772629 130.45514794 -5.92901454 137.15234375 -1.80078125 C137.9103125 -1.35347656 138.66828125 -0.90617188 139.44921875 -0.4453125 C144.70329836 2.84289504 148.93423808 6.68606424 153.15234375 11.19921875 C154.35890625 12.40578125 154.35890625 12.40578125 155.58984375 13.63671875 C156.10546875 14.15234375 156.62109375 14.66796875 157.15234375 15.19921875 C157.33796875 14.51859375 157.52359375 13.83796875 157.71484375 13.13671875 C162.16403087 4.04490158 171.52392676 -0.35649612 180.15234375 -4.80078125 C187.42397086 -7.22465695 197.50181824 -7.14752577 204.46484375 -3.80078125 C206.05534454 -2.84594435 207.61741705 -1.84260959 209.15234375 -0.80078125 C210.08949219 -0.2078125 211.02664063 0.38515625 211.9921875 0.99609375 C220.97937987 7.02776648 227.06145133 14.8061999 229.70703125 25.42578125 C231.63697266 37.44559176 230.30489527 47.9657419 224.21484375 58.57421875 C220.6658064 63.09117537 216.65952249 66.66656515 212.15234375 70.19921875 C211.49234375 70.85921875 210.83234375 71.51921875 210.15234375 72.19921875 C210.15234375 73.18921875 210.15234375 74.17921875 210.15234375 75.19921875 C210.77109375 75.26109375 211.38984375 75.32296875 212.02734375 75.38671875 C214.15234375 76.19921875 214.15234375 76.19921875 215.46484375 78.32421875 C216.4600013 82.48578668 216.07696229 86.34998167 214.15234375 90.19921875 C214.01183424 91.77125947 213.92663562 93.34845121 213.87109375 94.92578125 C213.83371094 95.87582031 213.79632813 96.82585937 213.7578125 97.8046875 C213.70560547 99.29935547 213.70560547 99.29935547 213.65234375 100.82421875 C212.99491187 119.20796214 212.99491187 119.20796214 210.02734375 122.69921875 C206.40024117 124.5916201 204.19828239 124.70496108 200.15234375 124.19921875 C196.85171746 122.58728498 194.04750758 120.45101284 191.15234375 118.19921875 C190.71921875 119.40578125 190.71921875 119.40578125 190.27734375 120.63671875 C189.15234375 123.19921875 189.15234375 123.19921875 187.15234375 124.19921875 C184.51300323 124.35003821 181.91761707 124.43052655 179.27734375 124.44921875 C178.19646484 124.48015625 178.19646484 124.48015625 177.09375 124.51171875 C173.86601115 124.53549583 171.55842657 124.42266145 168.703125 122.8515625 C166.34722497 120.34137179 166.21694896 118.62329468 166.15234375 115.19921875 C166.91271263 113.38094534 167.67348205 111.56283688 168.4375 109.74609375 C170.13128172 103.71141788 170.71778314 95.02027098 167.65234375 89.49609375 C167.15734375 88.738125 166.66234375 87.98015625 166.15234375 87.19921875 C165.43513524 83.4233269 165.64832127 80.11562327 167.52734375 76.69921875 C169.15234375 75.19921875 169.15234375 75.19921875 171.15234375 75.19921875 C171.15234375 73.87921875 171.15234375 72.55921875 171.15234375 71.19921875 C169.60837903 69.6496129 169.60837903 69.6496129 167.52734375 68.38671875 C163.42123249 65.51536336 159.98463086 62.36182254 157.15234375 58.19921875 C157.15234375 57.53921875 157.15234375 56.87921875 157.15234375 56.19921875 C156.16234375 57.18921875 156.16234375 57.18921875 155.15234375 58.19921875 C154.69085938 58.65296875 154.229375 59.10671875 153.75390625 59.57421875 C152.61318169 60.73163684 151.50693979 61.92347296 150.42578125 63.13671875 C144.60238514 69.46337131 138.23406049 72.50531317 130.15234375 75.19921875 C131.08046875 75.75609375 132.00859375 76.31296875 132.96484375 76.88671875 C136.76953861 79.64698757 138.57604221 81.64908442 139.62109375 86.2734375 C140.39825031 91.47508764 139.70853685 95.14159116 138.15234375 100.19921875 C138.32336067 103.70506553 139.12392947 105.15837322 141.15234375 108.07421875 C143.43796401 111.6455004 143.99902604 113.98298182 144.15234375 118.19921875 C143.33984375 121.07421875 143.33984375 121.07421875 142.15234375 123.19921875 C139.01869396 124.76604364 135.66500968 124.40424219 132.22265625 124.4375 C131.43591522 124.44557175 130.64917419 124.45364349 129.83859253 124.46195984 C128.17252811 124.47579779 126.50643536 124.48652125 124.84033203 124.49438477 C122.29404975 124.51160576 119.74906338 124.55549292 117.203125 124.59960938 C115.58464497 124.60973577 113.9661539 124.61825204 112.34765625 124.625 C111.58711945 124.64250809 110.82658264 124.66001617 110.04299927 124.67805481 C106.50028199 124.66353855 104.54818829 124.50348731 101.69873047 122.31323242 C99.80145137 119.71952549 99.2257921 118.43094633 99.15234375 115.19921875 C99.62671875 114.08546875 100.10109375 112.97171875 100.58984375 111.82421875 C103.26212966 105.4131842 103.5506522 95.99384403 101.15625 89.49609375 C100.82496094 88.738125 100.49367187 87.98015625 100.15234375 87.19921875 C99.68994195 84.31189588 99.86773877 82.18757106 100.15234375 79.19921875 C102.08984375 76.88671875 102.08984375 76.88671875 104.15234375 75.19921875 C104.48234375 74.20921875 104.81234375 73.21921875 105.15234375 72.19921875 C104.26933594 71.95945312 103.38632813 71.7196875 102.4765625 71.47265625 C98.84091265 70.07991612 96.79764544 68.46816699 93.96484375 65.82421875 C93.12566406 65.05335937 92.28648437 64.2825 91.421875 63.48828125 C89.15234375 61.19921875 89.15234375 61.19921875 87.4765625 58.91015625 C87.03957031 58.34554687 86.60257813 57.7809375 86.15234375 57.19921875 C85.49234375 57.19921875 84.83234375 57.19921875 84.15234375 57.19921875 C83.10482741 58.53837316 82.11456499 59.92252146 81.15234375 61.32421875 C76.31167773 67.74468372 70.16305895 71.94487189 62.15234375 73.19921875 C63.05008175 75.442091 63.05008175 75.442091 65.65234375 76.69921875 C68.15234375 78.19921875 68.15234375 78.19921875 69.15234375 80.19921875 C69.24884314 82.19732385 69.28215247 84.19879055 69.27734375 86.19921875 C69.27992188 87.27171875 69.2825 88.34421875 69.28515625 89.44921875 C69.15234375 92.19921875 69.15234375 92.19921875 68.15234375 94.19921875 C67.89492071 98.22056284 67.89492071 98.22056284 68.15234375 102.19921875 C69.1308457 103.22026426 70.13214802 104.21983085 71.15234375 105.19921875 C72.36290384 110.78641916 72.43216298 114.81055512 70.15234375 120.19921875 C67.39904384 122.98125744 65.78304921 124.10562413 61.87841797 124.68505859 C60.06108154 124.67273193 60.06108154 124.67273193 58.20703125 124.66015625 C57.22949387 124.65878159 57.22949387 124.65878159 56.23220825 124.65737915 C54.8622504 124.65136525 53.49230433 124.63568564 52.12255859 124.61083984 C50.02652595 124.57420446 47.93225778 124.56982167 45.8359375 124.5703125 C35.59587825 124.49490841 35.59587825 124.49490841 32.15234375 122.19921875 C30.97244136 118.65951157 30.95665107 115.91737976 31.15234375 112.19921875 C31.48105469 111.64621094 31.80976562 111.09320313 32.1484375 110.5234375 C33.71103782 106.90574416 33.4405432 103.34556307 33.40234375 99.44921875 C33.41007812 98.67578125 33.4178125 97.90234375 33.42578125 97.10546875 C33.41252832 93.15609428 33.11530746 89.617663 32.09765625 85.79296875 C31.15234375 82.19921875 31.15234375 82.19921875 31.77734375 79.44921875 C33.29451733 76.96657108 34.99432212 75.14143822 37.15234375 73.19921875 C36.32734375 72.99296875 35.50234375 72.78671875 34.65234375 72.57421875 C27.4204273 69.73310871 22.46088072 64.77359528 17.59765625 58.8359375 C16.23116221 57.08261824 16.23116221 57.08261824 14.15234375 56.19921875 C13.91128906 56.93914063 13.67023438 57.6790625 13.421875 58.44140625 C11.97995035 61.57371026 10.44546018 63.09083324 7.83984375 65.32421875 C7.08058594 65.98679687 6.32132812 66.649375 5.5390625 67.33203125 C3.17337488 69.18276559 0.75954704 70.7133436 -1.84765625 72.19921875 C-0.52765625 72.52921875 0.79234375 72.85921875 2.15234375 73.19921875 C2.15234375 73.85921875 2.15234375 74.51921875 2.15234375 75.19921875 C3.08046875 75.57046875 3.08046875 75.57046875 4.02734375 75.94921875 C6.64678076 77.49006405 7.28715018 78.28902221 8.15234375 81.19921875 C7.63151042 87.24088542 7.63151042 87.24088542 6.15234375 90.19921875 C6.00010314 92.92198346 5.91443469 95.60030182 5.90234375 98.32421875 C5.89533447 99.4851001 5.89533447 99.4851001 5.88818359 100.66943359 C5.9266737 104.7177379 6.09522653 108.0729485 7.77734375 111.82421875 C9.15234375 115.19921875 9.15234375 115.19921875 8.52734375 119.07421875 C7.15234375 122.19921875 7.15234375 122.19921875 4.15234375 124.19921875 C1.99623108 124.45991516 1.99623108 124.45991516 -0.53100586 124.47387695 C-1.95279396 124.48817497 -1.95279396 124.48817497 -3.40330505 124.50276184 C-4.42521439 124.50185043 -5.44712372 124.50093903 -6.5 124.5 C-8.07751793 124.50642769 -8.07751793 124.50642769 -9.68690491 124.51298523 C-11.91194946 124.51873043 -14.1370128 124.5192274 -16.36206055 124.51489258 C-19.76839214 124.51173429 -23.17385406 124.53518426 -26.58007812 124.56054688 C-28.74088432 124.56281998 -30.90169285 124.56352331 -33.0625 124.5625 C-34.0823851 124.57170975 -35.1022702 124.58091949 -36.15306091 124.59040833 C-37.10407181 124.58417953 -38.0550827 124.57795074 -39.03491211 124.5715332 C-39.86969589 124.57216263 -40.70447968 124.57279205 -41.56455994 124.57344055 C-44.41390103 124.1064057 -45.77128255 123.18352467 -47.84765625 121.19921875 C-49.28856401 116.20407186 -48.65555691 113.74017293 -46.57104492 109.13037109 C-45.34567262 105.85912745 -45.19664965 102.60058736 -45.03515625 99.13671875 C-44.98423828 98.45544922 -44.93332031 97.77417969 -44.88085938 97.07226562 C-44.62882851 92.62541597 -45.32335849 89.34507142 -46.84765625 85.19921875 C-46.70588238 81.08777656 -46.54994991 78.98663892 -43.78515625 75.88671875 C-43.14578125 75.32984375 -42.50640625 74.77296875 -41.84765625 74.19921875 C-41.84765625 73.53921875 -41.84765625 72.87921875 -41.84765625 72.19921875 C-40.19765625 72.19921875 -38.54765625 72.19921875 -36.84765625 72.19921875 C-37.48832031 71.87050781 -38.12898438 71.54179688 -38.7890625 71.203125 C-49.16713993 65.49595574 -54.74183675 57.57921054 -58.4296875 46.44140625 C-60.32827217 36.25647539 -59.59881014 25.4325933 -54.84765625 16.19921875 C-54.45835938 15.42320313 -54.0690625 14.6471875 -53.66796875 13.84765625 C-48.54113434 5.01979345 -39.13480631 -1.86458903 -29.54296875 -5.2109375 C-18.60056618 -7.60557922 -9.33242533 -5.90157487 0 0 Z M-27.84765625 75.19921875 C-26.19765625 77.17921875 -24.54765625 79.15921875 -22.84765625 81.19921875 C-21.53515625 84.07421875 -21.53515625 84.07421875 -20.84765625 86.19921875 C-19.85765625 86.19921875 -18.86765625 86.19921875 -17.84765625 86.19921875 C-17.59371094 85.65652344 -17.33976562 85.11382812 -17.078125 84.5546875 C-16.73394531 83.83925781 -16.38976563 83.12382813 -16.03515625 82.38671875 C-15.53048828 81.32517578 -15.53048828 81.32517578 -15.015625 80.2421875 C-13.84765625 78.19921875 -13.84765625 78.19921875 -10.84765625 75.19921875 C-16.45765625 75.19921875 -22.06765625 75.19921875 -27.84765625 75.19921875 Z M185.15234375 75.19921875 C186.80234375 76.84921875 188.45234375 78.49921875 190.15234375 80.19921875 C191.14234375 79.20921875 192.13234375 78.21921875 193.15234375 77.19921875 C192.82234375 76.53921875 192.49234375 75.87921875 192.15234375 75.19921875 C189.84234375 75.19921875 187.53234375 75.19921875 185.15234375 75.19921875 Z " fill="#025070" transform="translate(58.84765625,5.80078125)"/>
<path d="M0 0 C1.52293998 0.92144268 3.02467942 1.87909239 4.5 2.875 C5.22832031 3.2978125 5.95664062 3.720625 6.70703125 4.15625 C13.68228155 8.60798674 15.96925145 15.28275436 18.5 22.875 C19.32879846 34.20644126 18.50684402 42.31280167 11.0625 51.1875 C3.80917807 58.96553032 -3.38051914 62.87213401 -14.0625 63.25 C-22.41397464 63.15743439 -30.1056574 60.43424018 -36.375 54.8125 C-43.0536636 47.2662649 -47.06823106 37.98951295 -46.5 27.875 C-45.44400243 18.75502102 -42.08934862 11.33276408 -35.5 4.875 C-25.10227268 -2.7086029 -12.05061979 -5.65565898 0 0 Z " fill="#98BB4E" transform="translate(263.5,2.125)"/>
<path d="M0 0 C0.64582031 0.350625 1.29164062 0.70125 1.95703125 1.0625 C8.75718533 5.32926334 12.96838457 12.34882444 15 20 C15.96211593 32.17014176 14.97866871 41.22999644 7.08984375 50.88671875 C0.41460937 57.63681557 -7.92488149 60.9542664 -17.3125 61.375 C-25.79004536 61.20056491 -33.76816381 57.75833883 -40 52 C-47.56990459 43.69809992 -49.4657604 36.44725943 -49.23828125 25.30078125 C-48.96716312 21.54512851 -48.33511997 18.50468992 -47 15 C-46.34 15 -45.68 15 -45 15 C-44.84917969 14.14728516 -44.84917969 14.14728516 -44.6953125 13.27734375 C-43.0995928 6.73052116 -40.26476828 3.95583112 -34.59765625 0.44140625 C-33.74042969 -0.03425781 -32.88320313 -0.50992187 -32 -1 C-31.03900391 -1.54333984 -31.03900391 -1.54333984 -30.05859375 -2.09765625 C-20.54911139 -6.51350659 -8.93706138 -4.87767803 0 0 Z " fill="#505548" transform="translate(56,4)"/>
<path d="M0 0 C0.73863281 0.40734375 1.47726563 0.8146875 2.23828125 1.234375 C2.94597656 1.60046875 3.65367188 1.9665625 4.3828125 2.34375 C11.14875088 6.53526823 15.0912288 13.71785632 17.23828125 21.234375 C18.88359118 31.15284391 17.5164946 40.27138958 12.11328125 48.796875 C6.87402793 55.6518262 -0.22668742 60.68876836 -8.76171875 62.234375 C-18.81971417 63.47765499 -27.90298897 61.0506363 -36.13671875 55.046875 C-44.19344826 46.41466481 -47.26230784 37.38422305 -47.078125 25.70703125 C-46.63573658 20.85168178 -45.19438542 17.39890702 -42.76171875 13.234375 C-42.43429688 12.53699219 -42.106875 11.83960938 -41.76953125 11.12109375 C-38.44856457 4.68520577 -33.19579038 2.13710272 -26.76171875 -0.765625 C-25.56095703 -1.33023438 -25.56095703 -1.33023438 -24.3359375 -1.90625 C-16.51696408 -4.51652944 -7.35719126 -3.51603903 0 0 Z " fill="#C97A70" transform="translate(123.76171875,2.765625)"/>
<path d="M0 0 C1.39774119 0.7507867 2.77286885 1.54487805 4.125 2.375 C4.96417969 2.85710938 5.80335938 3.33921875 6.66796875 3.8359375 C11.34837499 6.69497635 11.34837499 6.69497635 13.125 8.375 C13.125 9.695 13.125 11.015 13.125 12.375 C13.785 12.375 14.445 12.375 15.125 12.375 C20.07611172 21.44820008 21.88613477 30.88081552 19.125 41.0625 C18.795 41.825625 18.465 42.58875 18.125 43.375 C17.465 43.375 16.805 43.375 16.125 43.375 C16.0425 44.32375 15.96 45.2725 15.875 46.25 C15.125 49.375 15.125 49.375 13.3125 50.5 C12.590625 50.78875 11.86875 51.0775 11.125 51.375 C8.68524508 53.59948243 6.96586301 55.61370548 5.125 58.375 C0.73822685 61.24327475 -2.58199508 62.96784578 -7.875 63.375 C-8.6896875 63.43816406 -9.504375 63.50132813 -10.34375 63.56640625 C-17.306192 63.86954628 -22.67399078 62.55206028 -28.875 59.375 C-31.59091783 56.65908217 -34.00961489 53.81009676 -36.4375 50.8359375 C-36.911875 50.35382812 -37.38625 49.87171875 -37.875 49.375 C-38.535 49.375 -39.195 49.375 -39.875 49.375 C-44.46725513 39.96497722 -44.46725513 39.96497722 -43.875 35.375 C-44.205 35.375 -44.535 35.375 -44.875 35.375 C-44.92937607 33.79205218 -44.96796271 32.20855744 -45 30.625 C-45.02320313 29.74328125 -45.04640625 28.8615625 -45.0703125 27.953125 C-44.86409994 25.23111915 -44.14255925 23.75042601 -42.875 21.375 C-42.875 20.385 -42.875 19.395 -42.875 18.375 C-40.875 16.375 -40.875 16.375 -38.875 14.375 C-38.875 13.385 -38.875 12.395 -38.875 11.375 C-37.9778125 10.9728125 -37.9778125 10.9728125 -37.0625 10.5625 C-33.56411463 8.66337651 -32.14154546 7.17463639 -30.875 3.375 C-29.1328125 2.2421875 -29.1328125 2.2421875 -27 1.25 C-26.30132812 0.91742188 -25.60265625 0.58484375 -24.8828125 0.2421875 C-17.60968346 -2.89912504 -7.35996189 -3.14494826 0 0 Z " fill="#265D8D" transform="translate(191.875,1.625)"/>
<path d="M0 0 C0.20743034 21.36532508 0.20743034 21.36532508 -1 27 C-3.046875 28.21875 -3.046875 28.21875 -5 29 C-5 29.99 -5 30.98 -5 32 C-1.04 32 2.92 32 7 32 C6.67 31.34 6.34 30.68 6 30 C5.01 29.67 4.02 29.34 3 29 C1.71837374 20.88303369 2.3023126 13.14684214 3 5 C5.9222135 9.38332025 7.64678381 14.19423361 9.625 19.0625 C10.04523437 20.08150391 10.46546875 21.10050781 10.8984375 22.15039062 C11.29546875 23.12298828 11.6925 24.09558594 12.1015625 25.09765625 C12.46588379 25.98976807 12.83020508 26.88187988 13.20556641 27.80102539 C14 30 14 30 14 32 C16.81007097 29.56127258 18.03267676 27.07903256 19.48046875 23.67578125 C19.92197266 22.64775391 20.36347656 21.61972656 20.81835938 20.56054688 C21.27017578 19.48869141 21.72199219 18.41683594 22.1875 17.3125 C22.65091797 16.22904297 23.11433594 15.14558594 23.59179688 14.02929688 C24.73432767 11.35553925 25.87010033 8.67911414 27 6 C27.33 6 27.66 6 28 6 C28 13.59 28 21.18 28 29 C26.68 29.33 25.36 29.66 24 30 C26.9615696 31.4807848 29.83506295 31.35314037 33.125 31.5625 C34.40632813 31.64628906 35.68765625 31.73007813 37.0078125 31.81640625 C37.99523438 31.87699219 38.98265625 31.93757813 40 32 C40 31.34 40 30.68 40 30 C37.525 29.01 37.525 29.01 35 28 C35 18.76 35 9.52 35 0 C41 -1 41 -1 42.8125 0 C44.58757111 2.98959346 44.82154826 5.54993312 45 9 C44.52046875 10.09248047 44.52046875 10.09248047 44.03125 11.20703125 C42.66505175 14.90715152 42.6611301 18.4208128 42.6875 22.3125 C42.6872583 23.45307861 42.6872583 23.45307861 42.68701172 24.61669922 C42.74970528 28.60933407 42.98213367 31.92307453 44.625 35.625 C46 39 46 39 45.375 42.875 C44 46 44 46 41 48 C38.84388733 48.26069641 38.84388733 48.26069641 36.31665039 48.2746582 C35.36879166 48.28419022 34.42093292 48.29372223 33.4443512 48.30354309 C32.42244186 48.30263168 31.40053253 48.30172028 30.34765625 48.30078125 C28.77013832 48.30720894 28.77013832 48.30720894 27.16075134 48.31376648 C24.93570679 48.31951168 22.71064345 48.32000865 20.4855957 48.31567383 C17.07926411 48.31251554 13.67380219 48.33596551 10.26757812 48.36132812 C8.10677193 48.36360123 5.9459634 48.36430456 3.78515625 48.36328125 C2.76527115 48.372491 1.74538605 48.38170074 0.69459534 48.39118958 C-0.25641556 48.38496078 -1.20742645 48.37873199 -2.18725586 48.37231445 C-3.02203964 48.37294388 -3.85682343 48.3735733 -4.71690369 48.3742218 C-7.56624478 47.90718695 -8.9236263 46.98430592 -11 45 C-12.44090776 40.00485311 -11.80790066 37.54095418 -9.72338867 32.93115234 C-8.49801637 29.6599087 -8.3489934 26.40136861 -8.1875 22.9375 C-8.13658203 22.25623047 -8.08566406 21.57496094 -8.03320312 20.87304688 C-7.78109474 16.4248294 -8.48279924 13.14859583 -10 9 C-9.82350814 5.52899339 -9.59570218 3.00328788 -7.8125 0 C-5.09288969 -1.50047466 -2.9605938 -0.57689514 0 0 Z " fill="#02506F" transform="translate(22,82)"/>
<path d="M0 0 C6.875 0.875 6.875 0.875 8 2 C8.08758003 3.99964982 8.10696576 6.0023611 8.09765625 8.00390625 C8.09443359 9.21884766 8.09121094 10.43378906 8.08789062 11.68554688 C8.07951172 12.96494141 8.07113281 14.24433594 8.0625 15.5625 C8.05798828 16.84576172 8.05347656 18.12902344 8.04882812 19.45117188 C8.03699545 22.63416022 8.02051068 25.81705762 8 29 C6.35 29.66 4.7 30.32 3 31 C3 31.66 3 32.32 3 33 C7.62 33 12.24 33 17 33 C16.67 32.34 16.34 31.68 16 31 C13.97536745 30.34786708 13.97536745 30.34786708 12 30 C10.76597138 25.22907044 10.88734888 20.57530554 10.9375 15.6875 C10.94201172 14.85154297 10.94652344 14.01558594 10.95117188 13.15429688 C10.96289452 11.10283351 10.98082797 9.05140727 11 7 C14.88349571 10.77661051 18.43737082 14.7429653 21.9375 18.875 C22.43701172 19.46152344 22.93652344 20.04804687 23.45117188 20.65234375 C23.95068359 21.23886719 24.45019531 21.82539062 24.96484375 22.4296875 C25.46097168 23.01202148 25.95709961 23.59435547 26.46826172 24.19433594 C27.53220856 25.44855188 28.59075406 26.70736179 29.64501953 27.96972656 C30.17595215 28.60104492 30.70688477 29.23236328 31.25390625 29.8828125 C31.73287354 30.45660645 32.21184082 31.03040039 32.70532227 31.62158203 C33.97323531 33.13069165 33.97323531 33.13069165 36 34 C35.99476318 33.21351074 35.98952637 32.42702148 35.98413086 31.61669922 C35.9632799 28.03614101 35.95031399 24.45559562 35.9375 20.875 C35.92912109 19.6375 35.92074219 18.4 35.91210938 17.125 C35.90888672 15.92617187 35.90566406 14.72734375 35.90234375 13.4921875 C35.89710693 12.39245605 35.89187012 11.29272461 35.88647461 10.15966797 C35.9991442 7.02381895 36.41373624 4.07940617 37 1 C42.41385948 -0.32338787 42.41385948 -0.32338787 44.8125 1 C46.58757111 3.98959346 46.82154826 6.54993312 47 10 C46.3336532 11.66679458 45.66696492 13.33345267 45 15 C44.65711254 17.47079725 44.65711254 17.47079725 44.62109375 20.01953125 C44.58693359 20.95990234 44.55277344 21.90027344 44.51757812 22.86914062 C44.49115234 23.84044922 44.46472656 24.81175781 44.4375 25.8125 C43.86393243 43.98360891 43.86393243 43.98360891 40.875 47.5 C37.24789742 49.39240135 35.04593864 49.50574233 31 49 C27.69937371 47.38806623 24.89516383 45.25179409 22 43 C21.566875 44.2065625 21.566875 44.2065625 21.125 45.4375 C20 48 20 48 18 49 C15.36065948 49.15081946 12.76527332 49.2313078 10.125 49.25 C9.40441406 49.270625 8.68382812 49.29125 7.94140625 49.3125 C4.7136674 49.33627708 2.40608282 49.2234427 -0.44921875 47.65234375 C-2.80511878 45.14215304 -2.93539479 43.42407593 -3 40 C-2.23963112 38.18172659 -1.4788617 36.36361813 -0.71484375 34.546875 C0.97893797 28.51219913 1.56543939 19.82105223 -1.5 14.296875 C-1.995 13.53890625 -2.49 12.7809375 -3 12 C-3.72605784 8.17751902 -3.53614514 4.89357523 -1.5 1.5 C-1.005 1.005 -0.51 0.51 0 0 Z " fill="#035070" transform="translate(228,81)"/>
<path d="M0 0 C0 9.57 0 19.14 0 29 C-1.65 29.33 -3.3 29.66 -5 30 C-5 30.66 -5 31.32 -5 32 C4.24 32 13.48 32 23 32 C23.33 29.03 23.66 26.06 24 23 C21.1877104 25.698743 21.1877104 25.698743 19.66796875 27.67578125 C16.25455039 30.38573165 11.10864084 29.14501085 7 29 C7 24.38 7 19.76 7 15 C9.97 15.33 12.94 15.66 16 16 C16 17.32 16 18.64 16 20 C16.99 20 17.98 20 19 20 C19 16.04 19 12.08 19 8 C18.01 8 17.02 8 16 8 C16 9.32 16 10.64 16 12 C13.03 12 10.06 12 7 12 C7 8.04 7 4.08 7 0 C9.413125 -0.0928125 9.413125 -0.0928125 11.875 -0.1875 C12.77992187 -0.22230469 13.68484375 -0.25710937 14.6171875 -0.29296875 C15.79667969 -0.14794922 15.79667969 -0.14794922 17 0 C19 3 19 3 19 6 C19.99 6 20.98 6 22 6 C21.67 3.69 21.34 1.38 21 -1 C24.65316671 0.24976756 25.78065836 0.67098753 28 4 C28.23046875 6.84765625 28.23046875 6.84765625 28.1875 10.0625 C28.18105469 11.12597656 28.17460937 12.18945312 28.16796875 13.28515625 C28 16 28 16 27 18 C26.74257696 22.02134409 26.74257696 22.02134409 27 26 C27.97850195 27.02104551 28.97980427 28.0206121 30 29 C31.21056009 34.58720041 31.27981923 38.61133637 29 44 C26.24670009 46.78203869 24.63070546 47.90640538 20.72607422 48.48583984 C18.90873779 48.47351318 18.90873779 48.47351318 17.0546875 48.4609375 C16.07715012 48.45956284 16.07715012 48.45956284 15.0798645 48.4581604 C13.70990665 48.4521465 12.33996058 48.43646689 10.97021484 48.41162109 C8.8741822 48.37498571 6.77991403 48.37060292 4.68359375 48.37109375 C-5.5564655 48.29568966 -5.5564655 48.29568966 -9 46 C-10.17990239 42.46029282 -10.19569268 39.71816101 -10 36 C-9.50693359 35.17048828 -9.50693359 35.17048828 -9.00390625 34.32421875 C-7.44130593 30.70652541 -7.71180055 27.14634432 -7.75 23.25 C-7.74226563 22.4765625 -7.73453125 21.703125 -7.7265625 20.90625 C-7.73981302 16.95759378 -8.0367476 13.4244282 -9.05859375 9.6015625 C-10 6 -10 6 -9.3125 3.125 C-6.54248402 -1.35978778 -5.1555551 -1.03111102 0 0 Z " fill="#025070" transform="translate(100,82)"/>
<path d="M0 0 C0.66 0.33 1.32 0.66 2 1 C2 1.33 2 1.66 2 2 C2.495 3.485 2.495 3.485 3 5 C2.75367118 7.59069971 2.44871022 10.11836247 2.0625 12.6875 C1.96259766 13.38939453 1.86269531 14.09128906 1.75976562 14.81445312 C1.51270675 16.54386527 1.25717148 18.2720627 1 20 C-0.65 20.66 -2.3 21.32 -4 22 C-1.9859524 25.0210714 -0.36720387 26.60667426 3 28 C2.62059959 33.43807249 1.06684979 35.46360888 -3 39 C-3.51820313 39.50789063 -4.03640625 40.01578125 -4.5703125 40.5390625 C-11.33277085 46.92408131 -18.66776069 48.6728699 -27.8671875 48.4140625 C-34.60175733 47.52395726 -41.6100963 45.17107472 -46.125 39.875 C-46.74375 38.92625 -47.3625 37.9775 -48 37 C-48.66 36.01 -49.32 35.02 -50 34 C-50 32.68 -50 31.36 -50 30 C-50.99 29.67 -51.98 29.34 -53 29 C-53.33 27.35 -53.66 25.7 -54 24 C-53.01 23.67 -52.02 23.34 -51 23 C-51 22.01 -51 21.02 -51 20 C-50.34 20 -49.68 20 -49 20 C-48.97421875 19.34773438 -48.9484375 18.69546875 -48.921875 18.0234375 C-48.54961646 12.28727179 -47.92596944 8.47124297 -44 4 C-41.15877511 1.75692772 -39.47550684 1.05706082 -35.875 0.625 C-32.63419875 1.04771321 -32.09160088 1.66087239 -30 4 C-30.66386719 3.94199219 -31.32773438 3.88398438 -32.01171875 3.82421875 C-37.87991853 3.49381321 -37.87991853 3.49381321 -43 6.125 C-45.41737102 9.31155865 -45.41737102 9.31155865 -47 15 C-40.07 15 -33.14 15 -26 15 C-26.66 12.03 -27.32 9.06 -28 6 C-27.01 6.99 -26.02 7.98 -25 9 C-25 11.31 -25 13.62 -25 16 C-32.26 16 -39.52 16 -47 16 C-44.96896279 24.32917961 -44.96896279 24.32917961 -42 27 C-39.69994337 27.3574447 -39.69994337 27.3574447 -37.125 27.3125 C-35.82949219 27.33763672 -35.82949219 27.33763672 -34.5078125 27.36328125 C-31.5251687 26.93121603 -30.19902968 26.02310731 -28 24 C-26.7483533 21.91665365 -26.7483533 21.91665365 -26 20 C-25.67 20.99 -25.34 21.98 -25 23 C-26.9375 25.6875 -26.9375 25.6875 -29 28 C-26.62766389 27.96219702 -26.62766389 27.96219702 -24 27 C-21.53786305 24.22383452 -21.53786305 24.22383452 -20 21 C-20.495 19.515 -20.495 19.515 -21 18 C-20.21625 17.9175 -19.4325 17.835 -18.625 17.75 C-15.8553382 17.29150599 -15.8553382 17.29150599 -14.875 15 C-14.58625 14.34 -14.2975 13.68 -14 13 C-13.01 12.67 -12.02 12.34 -11 12 C-10.505 13.98 -10.505 13.98 -10 16 C-9.67 14.35 -9.34 12.7 -9 11 C-8.34 11 -7.68 11 -7 11 C-6.67 9.68 -6.34 8.36 -6 7 C-6.66 7.33 -7.32 7.66 -8 8 C-7 6 -6 4 -5 2 C-4.01 2.33 -3.02 2.66 -2 3 C-1.34 2.01 -0.68 1.02 0 0 Z " fill="#CD867C" transform="translate(134,17)"/>
<path d="M0 0 C2.3125 0.8125 2.3125 0.8125 3.3125 1.8125 C3.40008003 3.81214982 3.41946576 5.8148611 3.41015625 7.81640625 C3.40693359 9.03134766 3.40371094 10.24628906 3.40039062 11.49804688 C3.39201172 12.77744141 3.38363281 14.05683594 3.375 15.375 C3.37048828 16.65826172 3.36597656 17.94152344 3.36132812 19.26367188 C3.34949545 22.44666022 3.33301068 25.62955762 3.3125 28.8125 C2.673125 29.10125 2.03375 29.39 1.375 29.6875 C-0.83956079 30.64073451 -0.83956079 30.64073451 -1.6875 32.8125 C3.5925 32.8125 8.8725 32.8125 14.3125 32.8125 C14.3125 32.1525 14.3125 31.4925 14.3125 30.8125 C12.6625 30.4825 11.0125 30.1525 9.3125 29.8125 C9.3125 25.8525 9.3125 21.8925 9.3125 17.8125 C10.9625 18.1425 12.6125 18.4725 14.3125 18.8125 C15.98046875 21.4296875 15.98046875 21.4296875 17.5 24.6875 C19.92183786 29.27366636 19.92183786 29.27366636 23.984375 32.2734375 C26.4367285 32.97312028 28.78240653 33.50705612 31.3125 33.8125 C31.3125 32.8225 31.3125 31.8325 31.3125 30.8125 C30.71695313 30.57273437 30.12140625 30.33296875 29.5078125 30.0859375 C26.86004552 28.5500442 25.8199939 27.01017363 24.1875 24.4375 C23.68992188 23.66664062 23.19234375 22.89578125 22.6796875 22.1015625 C21.45020688 20.04306065 20.34861261 17.97353487 19.3125 15.8125 C20.116875 15.19375 20.92125 14.575 21.75 13.9375 C24.35124519 12.07085959 24.35124519 12.07085959 25.3125 9.8125 C25.3814472 8.43907169 25.39717708 7.06247898 25.375 5.6875 C25.354375 4.40875 25.33375 3.13 25.3125 1.8125 C27.89720302 2.79290459 29.23607065 3.71908635 31 5.875 C33.99409261 12.57606441 33.43941933 17.90001218 31.3125 24.8125 C31.48351692 28.31834678 32.28408572 29.77165447 34.3125 32.6875 C36.59812026 36.25878165 37.15918229 38.59626307 37.3125 42.8125 C36.5 45.6875 36.5 45.6875 35.3125 47.8125 C32.17885021 49.37932489 28.82516593 49.01752344 25.3828125 49.05078125 C24.20270096 49.06288887 24.20270096 49.06288887 22.99874878 49.07524109 C21.33268436 49.08907904 19.66659161 49.0998025 18.00048828 49.10766602 C15.454206 49.12488701 12.90921963 49.16877417 10.36328125 49.21289062 C8.74480122 49.22301702 7.12631015 49.23153329 5.5078125 49.23828125 C4.7472757 49.25578934 3.98673889 49.27329742 3.20315552 49.29133606 C-0.33956176 49.2768198 -2.29165546 49.11676856 -5.14111328 46.92651367 C-7.03839238 44.33280674 -7.61405165 43.04422758 -7.6875 39.8125 C-7.213125 38.69875 -6.73875 37.585 -6.25 36.4375 C-3.57771409 30.02646545 -3.28919155 20.60712528 -5.68359375 14.109375 C-6.01488281 13.35140625 -6.34617188 12.5934375 -6.6875 11.8125 C-7.32319454 7.84310505 -7.27117523 4.69882164 -5 1.25 C-2.6875 -0.1875 -2.6875 -0.1875 0 0 Z " fill="#025070" transform="translate(165.6875,81.1875)"/>
<path d="M0 0 C7.87253261 1.45787641 14.66089921 4.66089921 20.375 10.375 C26.73043279 20.64146835 28.60518093 30.51617875 26.57421875 42.515625 C23.7307351 51.09841001 17.34865091 57.59615049 9.546875 61.83984375 C2.44260481 65.07599137 -2.59047131 65.42493666 -10 63 C-8.125 61.9375 -8.125 61.9375 -6 61 C-5.34 61.33 -4.68 61.66 -4 62 C-4.165 61.030625 -4.33 60.06125 -4.5 59.0625 C-4.55020891 54.08177637 -1.22557481 51.65385653 2.01953125 48.2421875 C7.01590944 42.58553843 7.56613506 36.38603633 7.34375 29.01953125 C6.41335727 20.84687689 2.6316297 14.97838788 -2.609375 8.8125 C-4 7 -4 7 -4 5 C-4.66 5 -5.32 5 -6 5 C-6 4.01 -6 3.02 -6 2 C-4.02 2 -2.04 2 0 2 C0 1.34 0 0.68 0 0 Z " fill="#515548" transform="translate(44,0)"/>
<path d="M0 0 C2.64461835 1.35225376 5.16371944 2.87329459 7.6875 4.4375 C8.36361328 4.84548828 9.03972656 5.25347656 9.73632812 5.67382812 C12.38927078 7.29199116 14.79481382 8.79481382 17 11 C18.77246406 18.5638778 19.38978273 27.55633078 17 35 C12.49627036 40.53575838 4.91281581 44.37928097 -2 46 C-5.50991803 45.48357309 -8.02806493 43.89873629 -11 42 C-9.25 40.875 -9.25 40.875 -7 40 C-6.37383789 40.34853027 -5.74767578 40.69706055 -5.10253906 41.05615234 C-3.0604927 42.25173305 -3.0604927 42.25173305 -1.07714844 41.40087891 C-0.4277832 41.01335449 0.22158203 40.62583008 0.890625 40.2265625 C1.59960938 39.8140625 2.30859375 39.4015625 3.0390625 38.9765625 C3.76867187 38.53054687 4.49828125 38.08453125 5.25 37.625 C5.99507813 37.18671875 6.74015625 36.7484375 7.5078125 36.296875 C9.34704125 35.21220164 11.17468324 34.10792483 13 33 C14.9771085 21.07935453 14.9771085 21.07935453 11.60839844 10.08984375 C7.60159459 6.56650549 3.1155646 4.40479235 -2 3 C-4.92048438 3.6474564 -4.92048438 3.6474564 -7 5 C-6.01 5.33 -5.02 5.66 -4 6 C-4 6.99 -4 7.98 -4 9 C-2.68 9.33 -1.36 9.66 0 10 C0 10.66 0 11.32 0 12 C1.093125 12.268125 2.18625 12.53625 3.3125 12.8125 C8.22916667 14.39583333 8.22916667 14.39583333 10 17 C10 17.99 10 18.98 10 20 C8.0625 19.625 8.0625 19.625 6 19 C5.67 18.34 5.34 17.68 5 17 C2.69 17 0.38 17 -2 17 C-2 17.99 -2 18.98 -2 20 C-1.30132812 20.12117188 -0.60265625 20.24234375 0.1171875 20.3671875 C1.02726562 20.53476562 1.93734375 20.70234375 2.875 20.875 C3.77992188 21.03742187 4.68484375 21.19984375 5.6171875 21.3671875 C8 22 8 22 10 24 C10.375 26.4375 10.375 26.4375 10 29 C7.55609819 31.95304802 5.90611726 32.00894121 2.0625 32.375 C-1.6506976 32.22230776 -4.13587674 31.50610785 -7 29 C-7 27.68 -7 26.36 -7 25 C-5.0625 25.375 -5.0625 25.375 -3 26 C-2.67 26.66 -2.34 27.32 -2 28 C0.64 28 3.28 28 6 28 C6.33 27.01 6.66 26.02 7 25 C6.32453125 24.96261719 5.6490625 24.92523438 4.953125 24.88671875 C3.61507813 24.78810547 3.61507813 24.78810547 2.25 24.6875 C1.36828125 24.62949219 0.4865625 24.57148437 -0.421875 24.51171875 C-3.32303774 23.9358819 -4.79225607 22.92403852 -7 21 C-7.03738281 22.04800781 -7.07476562 23.09601562 -7.11328125 24.17578125 C-7.17894515 25.55472305 -7.24539235 26.93362771 -7.3125 28.3125 C-7.33505859 29.00279297 -7.35761719 29.69308594 -7.38085938 30.40429688 C-7.65191921 35.5051501 -7.65191921 35.5051501 -9.37109375 37.94921875 C-12.0842025 39.69940161 -13.83741733 39.48655118 -17 39 C-19.8910849 37.81951259 -21.98948969 36.40263111 -24 34 C-25.10010354 30.17233575 -25.06953476 26.52349792 -25 22.5625 C-25.04382813 21.53833984 -25.08765625 20.51417969 -25.1328125 19.45898438 C-25.11387017 12.14250843 -25.11387017 12.14250843 -22.11035156 9.06176758 C-19.80383854 7.51776797 -17.48157534 6.23894283 -15 5 C-14.04609375 4.36191406 -13.0921875 3.72382813 -12.109375 3.06640625 C-11.33078125 2.57011719 -10.5521875 2.07382813 -9.75 1.5625 C-8.96109375 1.04816406 -8.1721875 0.53382812 -7.359375 0.00390625 C-4.28379726 -1.30474189 -3.15527155 -1.10227827 0 0 Z " fill="#99BC4B" transform="translate(253,10)"/>
<path d="M0 0 C0.66 0 1.32 0 2 0 C9.52695888 9.3694213 14.71493977 17.74730746 14.34375 30.04296875 C13.44252734 37.79553189 9.6868112 42.58967674 4.484375 48.13671875 C2.49244249 50.63711825 2.0789904 52.84038405 2 56 C1.67 56 1.34 56 1 56 C0.7215625 54.515 0.7215625 54.515 0.4375 53 C-0.51244456 49.58570651 -2.04069618 47.58895265 -4.4375 45 C-10.99027827 37.80559552 -11.51979208 32.28859776 -11.2734375 22.65234375 C-10.56420247 13.17899015 -6.6674688 6.78071668 0 0 Z " fill="#4BAF47" transform="translate(38,5)"/>
<path d="M0 0 C2.81772096 1.46216871 5.41423559 3.16240092 8 5 C8.43570313 4.6390625 8.87140625 4.278125 9.3203125 3.90625 C12.37305708 1.52748799 14.35999694 0.09846201 18.25 -0.5 C21.38592267 0.07016776 22.14295002 0.47159667 24 3 C24.29296875 5.69921875 24.29296875 5.69921875 24.1875 8.6875 C24.14689453 10.17830078 24.14689453 10.17830078 24.10546875 11.69921875 C24.07066406 12.45847656 24.03585938 13.21773437 24 14 C23.34 14.33 22.68 14.66 22 15 C21.67 11.37 21.34 7.74 21 4 C18.525 3.505 18.525 3.505 16 3 C13.18900586 4.8312811 13.18900586 4.8312811 11 7 C11.41622598 9.46955394 11.41622598 9.46955394 13 12 C15.5690412 13.34219295 18.21813439 14.20425705 21 15 C21 15.33 21 15.66 21 16 C19.35 16 17.7 16 16 16 C16.99 16.99 17.98 17.98 19 19 C19.99 18.34 20.98 17.68 22 17 C21.91621094 17.63808594 21.83242187 18.27617187 21.74609375 18.93359375 C21.64425781 19.75988281 21.54242188 20.58617188 21.4375 21.4375 C21.33308594 22.26121094 21.22867188 23.08492187 21.12109375 23.93359375 C21.08113281 24.61550781 21.04117188 25.29742187 21 26 C21.33 26.33 21.66 26.66 22 27 C22.04063832 28.66617115 22.042721 30.33388095 22 32 C20.68 31.34 19.36 30.68 18 30 C17.34 30.99 16.68 31.98 16 33 C17.65 33 19.3 33 21 33 C20.443125 33.268125 19.88625 33.53625 19.3125 33.8125 C18.1678125 34.4003125 18.1678125 34.4003125 17 35 C15.6696875 35.680625 15.6696875 35.680625 14.3125 36.375 C11.84580542 37.78202502 11.84580542 37.78202502 11.1875 40.1875 C11.0946875 41.0846875 11.0946875 41.0846875 11 42 C14.20336822 44.83374881 16.78087253 45.5205537 21 46 C21.33 42.04 21.66 38.08 22 34 C24.51012963 36.51012963 24.29721609 37.46805237 24.3125 40.9375 C24.32925781 41.81277344 24.34601563 42.68804687 24.36328125 43.58984375 C24 46 24 46 22.6484375 47.78515625 C19.95912789 49.76708821 18.27194466 49.49387844 15 49 C12.18227904 47.53783129 9.58576441 45.83759908 7 44 C6.34 44.639375 5.68 45.27875 5 45.9375 C1.05011913 48.6530431 -1.22258896 48.92294498 -6 49 C-7.72265625 47.78515625 -7.72265625 47.78515625 -9 46 C-9.36328125 43.84375 -9.36328125 43.84375 -9.3125 41.5 C-9.30863281 40.7265625 -9.30476562 39.953125 -9.30078125 39.15625 C-9 37 -9 37 -7 34 C-6.67 37.96 -6.34 41.92 -6 46 C-4.7625 45.690625 -3.525 45.38125 -2.25 45.0625 C0.5 44.375 3.25 43.6875 6 43 C6 41.68 6 40.36 6 39 C6.99 38.34 7.98 37.68 9 37 C7.68 36.67 6.36 36.34 5 36 C4.67 36.99 4.34 37.98 4 39 C3.649375 38.54625 3.29875 38.0925 2.9375 37.625 C0.22903794 35.35338666 -2.60795328 34.83201146 -6 34 C-6 33.67 -6 33.34 -6 33 C-4.35 33 -2.7 33 -1 33 C-1.66 31.68 -2.32 30.36 -3 29 C-4.32 29.99 -5.64 30.98 -7 32 C-6.87431641 31.12988281 -6.87431641 31.12988281 -6.74609375 30.2421875 C-6.13790579 25.57684697 -5.92794335 21.64557883 -7 17 C-5.68 17.66 -4.36 18.32 -3 19 C-2.34 18.01 -1.68 17.02 -1 16 C-2.65 16 -4.3 16 -6 16 C-5.443125 15.731875 -4.88625 15.46375 -4.3125 15.1875 C-3.549375 14.795625 -2.78625 14.40375 -2 14 C-1.113125 13.54625 -0.22625 13.0925 0.6875 12.625 C3.15419458 11.21797498 3.15419458 11.21797498 3.8125 8.8125 C3.874375 8.214375 3.93625 7.61625 4 7 C0.79663178 4.16625119 -1.78087253 3.4794463 -6 3 C-6.33 6.96 -6.66 10.92 -7 15 C-7.66 14.67 -8.32 14.34 -9 14 C-9.08114106 12.22992286 -9.13925505 10.45877902 -9.1875 8.6875 C-9.22230469 7.70136719 -9.25710937 6.71523437 -9.29296875 5.69921875 C-9 3 -9 3 -7.65625 1.17578125 C-4.94760219 -0.74710316 -3.25823913 -0.49180968 0 0 Z " fill="#77D1EB" transform="translate(172,8)"/>
<path d="M0 0 C3.3642138 0.86564566 6.04979505 2.18876306 9 4 C9.83917969 4.48210938 10.67835938 4.96421875 11.54296875 5.4609375 C16.22337499 8.31997635 16.22337499 8.31997635 18 10 C18 11.32 18 12.64 18 14 C18.66 14 19.32 14 20 14 C24.4596445 22.17255783 25.86591961 29.65100359 25 39 C24.34 39.99 23.68 40.98 23 42 C22.01 41.67 21.02 41.34 20 41 C19.67 39.35 19.34 37.7 19 36 C18.278125 36.639375 17.55625 37.27875 16.8125 37.9375 C13.96763777 40.0237323 12.39350841 40.45817933 9 41 C8.86722656 41.77085938 8.73445313 42.54171875 8.59765625 43.3359375 C8.33275391 44.84027344 8.33275391 44.84027344 8.0625 46.375 C7.80146484 47.87160156 7.80146484 47.87160156 7.53515625 49.3984375 C7 52 7 52 6 54 C2.06225823 54.36630156 0.43460229 54.30233203 -2.875 52 C-3.57625 51.34 -4.2775 50.68 -5 50 C-3.99148251 46.6077139 -3.4823515 45.28711399 -0.375 43.4375 C0.40875 42.963125 1.1925 42.48875 2 42 C2 40.68 2 39.36 2 38 C2.66 37.34 3.32 36.68 4 36 C4.66 36.99 5.32 37.98 6 39 C5.814375 37.783125 5.62875 36.56625 5.4375 35.3125 C5.01006818 31.97022061 5.07741117 29.28031583 6 26 C5.01 26.99 4.02 27.98 3 29 C2.34 27.35 1.68 25.7 1 24 C1.66 23.67 2.32 23.34 3 23 C2.236875 22.7525 1.47375 22.505 0.6875 22.25 C-2.2364045 20.89004442 -3.30004356 19.68414174 -5 17 C-3.61725283 13.65836101 -2.20955991 11.74233252 1 10 C5.41025641 10.41025641 5.41025641 10.41025641 7 12 C7.23287008 13.68183948 7.41264166 15.3712416 7.5625 17.0625 C7.68818359 18.44115234 7.68818359 18.44115234 7.81640625 19.84765625 C7.87699219 20.55792969 7.93757813 21.26820312 8 22 C8.09796875 21.37351562 8.1959375 20.74703125 8.296875 20.1015625 C8.44640625 19.28429687 8.5959375 18.46703125 8.75 17.625 C8.88921875 16.81289063 9.0284375 16.00078125 9.171875 15.1640625 C10 13 10 13 12.078125 11.7109375 C12.71234375 11.47632813 13.3465625 11.24171875 14 11 C13.236875 10.566875 12.47375 10.13375 11.6875 9.6875 C9 8 9 8 7.6875 6.375 C4.93783559 4.13453271 1.4309746 4.36666338 -2 4 C-3.4274512 3.82458258 -4.85454509 3.6462309 -6.28125 3.46484375 C-6.97734375 3.37783203 -7.6734375 3.29082031 -8.390625 3.20117188 C-9.08671875 3.11416016 -9.7828125 3.02714844 -10.5 2.9375 C-11.22703125 2.84662109 -11.9540625 2.75574219 -12.703125 2.66210938 C-14.46875 2.44140625 -16.234375 2.22070312 -18 2 C-12.73595239 -1.50936507 -6.1243071 -0.5040582 0 0 Z " fill="#295D8C" transform="translate(187,0)"/>
<path d="M0 0 C3.96 0.33 7.92 0.66 12 1 C15.3 8.26 18.6 15.52 22 23 C23.811935 19.98010834 25.48674917 17.14290557 27 14 C27.66 14 28.32 14 29 14 C29.103125 12.96875 29.20625 11.9375 29.3125 10.875 C29.99127797 7.04916055 31.11158795 4.36629975 33 1 C36.63 1 40.26 1 44 1 C44 1.66 44 2.32 44 3 C42.68 3.33 41.36 3.66 40 4 C40.33 13.24 40.66 22.48 41 32 C42.32 32.66 43.64 33.32 45 34 C45 34.66 45 35.32 45 36 C39.72 36 34.44 36 29 36 C29 35.34 29 34.68 29 34 C30.98 33.505 30.98 33.505 33 33 C32.505 22.605 32.505 22.605 32 12 C31.31292969 13.64871094 30.62585938 15.29742187 29.91796875 16.99609375 C29.00838134 19.14347021 28.09819404 21.29059263 27.1875 23.4375 C26.73568359 24.52611328 26.28386719 25.61472656 25.81835938 26.73632812 C25.37685547 27.77080078 24.93535156 28.80527344 24.48046875 29.87109375 C24.07723389 30.82943115 23.67399902 31.78776855 23.25854492 32.77514648 C22 35 22 35 19 36 C15.7 28.08 12.4 20.16 9 12 C8.67 18.93 8.34 25.86 8 33 C9.32 33.33 10.64 33.66 12 34 C12 34.66 12 35.32 12 36 C8.04 36 4.08 36 0 36 C0 35.01 0 34.02 0 33 C0.99 32.34 1.98 31.68 3 31 C3.60417117 28.19620936 3.60417117 28.19620936 3.73046875 24.8984375 C3.81103516 23.68671875 3.89160156 22.475 3.97460938 21.2265625 C4.04486328 19.95554687 4.11511719 18.68453125 4.1875 17.375 C4.26935547 16.09625 4.35121094 14.8175 4.43554688 13.5 C4.63638172 10.33389778 4.82395412 7.16756167 5 4 C2.525 3.01 2.525 3.01 0 2 C0 1.34 0 0.68 0 0 Z " fill="#439551" transform="translate(17,78)"/>
<path d="M0 0 C3.39706569 0.05204856 6.79162222 0.14716236 10.1875 0.25 C11.14720703 0.26417969 12.10691406 0.27835937 13.09570312 0.29296875 C17.53069106 0.44642854 20.27697456 0.5536656 24.11328125 2.921875 C26.38159336 5.42030573 26.9388593 6.44973374 27.3125 9.8125 C26.84670088 14.56365098 24.26038165 16.73961835 21 20 C22.07381517 21.77662117 23.159458 23.54609689 24.25 25.3125 C24.85328125 26.29863281 25.4565625 27.28476563 26.078125 28.30078125 C27.82699588 31.04820025 27.82699588 31.04820025 30.234375 32.66796875 C30.81703125 33.10753906 31.3996875 33.54710937 32 34 C32 34.99 32 35.98 32 37 C24.09169597 36.08750338 24.09169597 36.08750338 21 34 C19.0624949 30.97052382 17.44778441 27.83769702 15.78125 24.65234375 C14.13347674 21.55867265 14.13347674 21.55867265 10 21 C10 24.96 10 28.92 10 33 C11.65 33.33 13.3 33.66 15 34 C15 34.66 15 35.32 15 36 C9.72 36 4.44 36 -1 36 C-0.67 35.01 -0.34 34.02 0 33 C1.485 32.505 1.485 32.505 3 32 C3 23.09 3 14.18 3 5 C1.68 4.34 0.36 3.68 -1 3 C-0.67 2.01 -0.34 1.02 0 0 Z " fill="#72CBE7" transform="translate(165,78)"/>
<path d="M0 0 C0.226875 0.556875 0.45375 1.11375 0.6875 1.6875 C3.45779541 6.56849668 6.81946841 9.1082816 12 11 C12.07347656 12.37285156 12.07347656 12.37285156 12.1484375 13.7734375 C12.22320312 14.96195313 12.29796875 16.15046875 12.375 17.375 C12.44460937 18.55835937 12.51421875 19.74171875 12.5859375 20.9609375 C12.70217346 24.10562319 12.70217346 24.10562319 15 26 C21.00010901 25.79999637 24.28354104 24.65525569 29 21 C29.43570313 21.3609375 29.87140625 21.721875 30.3203125 22.09375 C33.42062818 24.5095804 35.3410995 25.91297541 39.3125 26.4375 C42.14438548 26.245151 42.14438548 26.245151 44 24 C44.0972886 21.87681936 44.12977619 19.75040309 44.125 17.625 C44.4757847 11.50650532 44.4757847 11.50650532 46.734375 9.32421875 C48.80036156 8.3477762 50.81797915 7.66649275 53 7 C53.99 6.34 54.98 5.68 56 5 C56.495 7.97 56.495 7.97 57 11 C57.66 10.34 58.32 9.68 59 9 C59.625 10.875 59.625 10.875 60 13 C59.34 13.66 58.68 14.32 58 15 C57.835 15.66 57.67 16.32 57.5 17 C56.5514755 20.79409799 52.57617066 23.04601117 49.65625 25.46484375 C47.76805477 27.09533304 47.76805477 27.09533304 46 30 C41.61322685 32.86827475 38.29300492 34.59284578 33 35 C32.1853125 35.06316406 31.370625 35.12632813 30.53125 35.19140625 C23.568808 35.49454628 18.20100922 34.17706028 12 31 C9.28408217 28.28408217 6.86538511 25.43509676 4.4375 22.4609375 C3.963125 21.97882812 3.48875 21.49671875 3 21 C2.34 21 1.68 21 1 21 C0.32404685 19.58774074 -0.34040059 18.16997095 -1 16.75 C-1.37125 15.96109375 -1.7425 15.1721875 -2.125 14.359375 C-3 12 -3 12 -3 8 C-2.34 8 -1.68 8 -1 8 C-0.67 5.36 -0.34 2.72 0 0 Z " fill="#255B8B" transform="translate(151,30)"/>
<path d="M0 0 C3.89502968 -0.55220674 7.49115802 -1.04255959 10.84863281 1.27734375 C12.57616194 3.10539497 14.10834611 4.99364504 15.625 7 C16.17696045 7.68392822 16.7289209 8.36785645 17.29760742 9.07250977 C18.38762741 10.42328781 19.467989 11.78192825 20.53759766 13.14892578 C22.38286131 15.48461677 24.33199909 17.7159645 26.3125 19.9375 C27.6428125 21.4534375 27.6428125 21.4534375 29 23 C29 17.06 29 11.12 29 5 C27.35 4.34 25.7 3.68 24 3 C24.33 2.01 24.66 1.02 25 0 C29.29 0 33.58 0 38 0 C37.67 1.32 37.34 2.64 37 4 C36.01 4 35.02 4 34 4 C33.67 14.89 33.34 25.78 33 37 C22.90842255 31.95421128 15.67605281 19.90140374 9 11 C9 18.26 9 25.52 9 33 C10.65 33.33 12.3 33.66 14 34 C14 34.66 14 35.32 14 36 C9.38 36 4.76 36 0 36 C0 35.34 0 34.68 0 34 C1.32 33.34 2.64 32.68 4 32 C4 23.09 4 14.18 4 5 C1.525 4.01 1.525 4.01 -1 3 C-0.67 2.01 -0.34 1.02 0 0 Z " fill="#95B654" transform="translate(231,78)"/>
<path d="M0 0 C8.25 0 16.5 0 25 0 C25.33 2.97 25.66 5.94 26 9 C25.01 9 24.02 9 23 9 C22.34 7.35 21.68 5.7 21 4 C17.7 3.67 14.4 3.34 11 3 C11 6.96 11 10.92 11 15 C13.97 15 16.94 15 20 15 C20 13.68 20 12.36 20 11 C20.99 11 21.98 11 23 11 C23 14.96 23 18.92 23 23 C22.01 23 21.02 23 20 23 C20 21.68 20 20.36 20 19 C17.36 19 14.72 19 12 19 C11.67 23.29 11.34 27.58 11 32 C17.435 31.505 17.435 31.505 24 31 C24.66 29.35 25.32 27.7 26 26 C26.66 26 27.32 26 28 26 C27.67 28.97 27.34 31.94 27 35 C17.76 35 8.52 35 -1 35 C-1 34.34 -1 33.68 -1 33 C1.475 32.505 1.475 32.505 4 32 C3.67 22.43 3.34 12.86 3 3 C2.01 2.67 1.02 2.34 0 2 C0 1.34 0 0.68 0 0 Z " fill="#B7837D" transform="translate(96,79)"/>
<path d="M0 0 C2.64461835 1.35225376 5.16371944 2.87329459 7.6875 4.4375 C8.36361328 4.84548828 9.03972656 5.25347656 9.73632812 5.67382812 C12.38927078 7.29199116 14.79481382 8.79481382 17 11 C18.77246406 18.5638778 19.38978273 27.55633078 17 35 C12.49627036 40.53575838 4.91281581 44.37928097 -2 46 C-5.50991803 45.48357309 -8.02806493 43.89873629 -11 42 C-9.25 40.875 -9.25 40.875 -7 40 C-6.37383789 40.34853027 -5.74767578 40.69706055 -5.10253906 41.05615234 C-3.0604927 42.25173305 -3.0604927 42.25173305 -1.07714844 41.40087891 C-0.4277832 41.01335449 0.22158203 40.62583008 0.890625 40.2265625 C1.59960938 39.8140625 2.30859375 39.4015625 3.0390625 38.9765625 C3.76867187 38.53054687 4.49828125 38.08453125 5.25 37.625 C5.99507813 37.18671875 6.74015625 36.7484375 7.5078125 36.296875 C9.34704125 35.21220164 11.17468324 34.10792483 13 33 C14.9771085 21.07935453 14.9771085 21.07935453 11.60839844 10.08984375 C7.60159459 6.56650549 3.1155646 4.40479235 -2 3 C-4.67226255 3.45729761 -4.67226255 3.45729761 -7 5 C-8.00417969 5.56976563 -9.00835937 6.13953125 -10.04296875 6.7265625 C-12.14735301 7.99703548 -14.25151809 9.26787159 -16.35546875 10.5390625 C-19 12 -19 12 -21 12 C-21 18.93 -21 25.86 -21 33 C-16.43328912 35.18569534 -16.43328912 35.18569534 -13 35 C-12.67 28.07 -12.34 21.14 -12 14 C-11.01 14 -10.02 14 -9 14 C-8.94213332 17.79160297 -8.90644946 21.58309311 -8.875 25.375 C-8.85824219 26.45523438 -8.84148437 27.53546875 -8.82421875 28.6484375 C-8.81777344 29.6796875 -8.81132812 30.7109375 -8.8046875 31.7734375 C-8.79421387 32.72653809 -8.78374023 33.67963867 -8.77294922 34.66162109 C-9 37 -9 37 -11 39 C-14.79167773 39.61724986 -17.3897109 39.11034771 -20.64453125 37.1875 C-23.0280055 35.40897166 -23.88116102 34.41366758 -24.7097168 31.52954102 C-25.01840457 28.51146247 -25.05324155 25.59536701 -25 22.5625 C-25.04382813 21.53833984 -25.08765625 20.51417969 -25.1328125 19.45898438 C-25.11387017 12.14250843 -25.11387017 12.14250843 -22.11035156 9.06176758 C-19.80383854 7.51776797 -17.48157534 6.23894283 -15 5 C-14.04609375 4.36191406 -13.0921875 3.72382813 -12.109375 3.06640625 C-11.33078125 2.57011719 -10.5521875 2.07382813 -9.75 1.5625 C-8.96109375 1.04816406 -8.1721875 0.53382812 -7.359375 0.00390625 C-4.28379726 -1.30474189 -3.15527155 -1.10227827 0 0 Z " fill="#F4F7EC" transform="translate(253,10)"/>
<path d="M0 0 C6.38783414 5.8403055 11.43240251 12.91360845 12.25390625 21.72265625 C12.64977845 31.82378235 9.94461878 38.39213643 3.171875 45.78515625 C2.78515625 46.18605469 2.3984375 46.58695313 2 47 C1.34 46.67 0.68 46.34 0 46 C-1.39372377 41.47288061 -1.14437691 36.74112635 -1.1328125 32.05078125 C-1.13376923 31.19695358 -1.13472595 30.34312592 -1.13571167 29.46342468 C-1.13639015 27.66563849 -1.1345591 25.8678498 -1.13037109 24.07006836 C-1.12499831 21.31163078 -1.13033747 18.55335455 -1.13671875 15.79492188 C-1.1360583 14.04687464 -1.13477782 12.29882751 -1.1328125 10.55078125 C-1.13483673 9.7237117 -1.13686096 8.89664215 -1.13894653 8.04450989 C-1.11497274 2.22994548 -1.11497274 2.22994548 0 0 Z " fill="#419E47" transform="translate(40,7)"/>
<path d="M0 0 C0.66 0 1.32 0 2 0 C2 0.99 2 1.98 2 3 C1.34 3 0.68 3 0 3 C0 3.66 0 4.32 0 5 C2.64 5 5.28 5 8 5 C8 5.33 8 5.66 8 6 C7.39671875 5.99097656 6.7934375 5.98195313 6.171875 5.97265625 C1.40216598 6.06448822 1.40216598 6.06448822 -2.5234375 8.44921875 C-4.19558778 11.18276939 -5.02780085 13.41618225 -4.875 16.625 C-3.96208802 19.10290395 -2.98490176 21.54995513 -2 24 C-0.20739868 23.94004678 1.58425795 23.8512759 3.375 23.75 C4.37273437 23.70359375 5.37046875 23.6571875 6.3984375 23.609375 C9.1526477 23.27839115 9.1526477 23.27839115 10.3515625 20.953125 C10.56554687 20.30859375 10.77953125 19.6640625 11 19 C11.66 19 12.32 19 13 19 C12.67 20.65 12.34 22.3 12 24 C13.65 24 15.3 24 17 24 C16.443125 24.268125 15.88625 24.53625 15.3125 24.8125 C14.549375 25.204375 13.78625 25.59625 13 26 C11.6696875 26.680625 11.6696875 26.680625 10.3125 27.375 C7.84580542 28.78202502 7.84580542 28.78202502 7.1875 31.1875 C7.0946875 32.0846875 7.0946875 32.0846875 7 33 C10.20336822 35.83374881 12.78087253 36.5205537 17 37 C17.33 33.04 17.66 29.08 18 25 C20.51012963 27.51012963 20.29721609 28.46805237 20.3125 31.9375 C20.32925781 32.81277344 20.34601563 33.68804687 20.36328125 34.58984375 C20 37 20 37 18.6484375 38.78515625 C15.95912789 40.76708821 14.27194466 40.49387844 11 40 C8.18227904 38.53783129 5.58576441 36.83759908 3 35 C2.34 35.639375 1.68 36.27875 1 36.9375 C-2.94988087 39.6530431 -5.22258896 39.92294498 -10 40 C-11.72265625 38.78515625 -11.72265625 38.78515625 -13 37 C-13.36328125 34.84375 -13.36328125 34.84375 -13.3125 32.5 C-13.30863281 31.7265625 -13.30476562 30.953125 -13.30078125 30.15625 C-13 28 -13 28 -11 25 C-10.67 28.96 -10.34 32.92 -10 37 C-8.7625 36.690625 -7.525 36.38125 -6.25 36.0625 C-3.5 35.375 -0.75 34.6875 2 34 C2 32.68 2 31.36 2 30 C2.99 29.34 3.98 28.68 5 28 C3.68 27.67 2.36 27.34 1 27 C0.67 27.99 0.34 28.98 0 30 C-0.350625 29.54625 -0.70125 29.0925 -1.0625 28.625 C-3.77096206 26.35338666 -6.60795328 25.83201146 -10 25 C-10 24.67 -10 24.34 -10 24 C-8.35 24 -6.7 24 -5 24 C-5.66 22.68 -6.32 21.36 -7 20 C-8.32 20.99 -9.64 21.98 -11 23 C-10.87431641 22.12988281 -10.87431641 22.12988281 -10.74609375 21.2421875 C-10.13790579 16.57684697 -9.92794335 12.64557883 -11 8 C-9.68 8.66 -8.36 9.32 -7 10 C-6.34 9.01 -5.68 8.02 -5 7 C-6.65 7 -8.3 7 -10 7 C-9.443125 6.731875 -8.88625 6.46375 -8.3125 6.1875 C-3.37424914 3.93288201 -3.37424914 3.93288201 0 0 Z " fill="#72CBE6" transform="translate(176,17)"/>
<path d="M0 0 C-0.86625 0.45439453 -0.86625 0.45439453 -1.75 0.91796875 C-3.97030607 2.17074561 -6.01907882 3.3926736 -8 5 C-8.67154684 7.71658257 -8.67154684 7.71658257 -8 10 C-7.67 10 -7.34 10 -7 10 C-7.33 8.68 -7.66 7.36 -8 6 C-3.375 3 -3.375 3 0 3 C0.13277344 3.63808594 0.26554688 4.27617187 0.40234375 4.93359375 C0.57894531 5.75988281 0.75554687 6.58617187 0.9375 7.4375 C1.11152344 8.26121094 1.28554687 9.08492187 1.46484375 9.93359375 C1.80752994 11.97661204 1.80752994 11.97661204 3 13 C3.66 12.34 4.32 11.68 5 11 C5.66 12.65 6.32 14.3 7 16 C6.67 16.33 6.34 16.66 6 17 C6.804375 17.474375 7.60875 17.94875 8.4375 18.4375 C11 20 11 20 12 21 C12.33 20.34 12.66 19.68 13 19 C14.65 19 16.3 19 18 19 C17.34 19.99 16.68 20.98 16 22 C15.34 22 14.68 22 14 22 C14 23.32 14 24.64 14 26 C9.77050005 28.41685712 6.87664009 29.34833144 2 29 C1.86722656 28.39671875 1.73445312 27.7934375 1.59765625 27.171875 C1.33275391 25.97304688 1.33275391 25.97304688 1.0625 24.75 C0.88847656 23.96109375 0.71445313 23.1721875 0.53515625 22.359375 C0.052444 20.23121297 -0.46163178 18.11467158 -1 16 C-1.721875 15.9175 -2.44375 15.835 -3.1875 15.75 C-6.69561738 14.81450203 -8.46965459 13.60063278 -11 11 C-12.1875 8.0625 -12.1875 8.0625 -12 5 C-5.38461538 -1.61538462 -5.38461538 -1.61538462 0 0 Z " fill="#2A5E8F" transform="translate(164,25)"/>
<path d="M0 0 C4.21219319 0.19526723 5.161248 0.30448673 8.3125 3.3125 C9.73631409 7.15679804 9.79948785 8.81160475 8.5625 12.6875 C8.27375 13.63625 7.985 14.585 7.6875 15.5625 C4.94254783 18.30745217 3.67973896 17.99511587 -0.125 18 C-1.89706945 17.91955586 -3.6687602 17.82263292 -5.4375 17.6875 C-9.45628914 11.47664405 -9.45628914 11.47664405 -9.375 8.0625 C-9.065625 7.27875 -8.75625 6.495 -8.4375 5.6875 C-8.14875 4.759375 -7.86 3.83125 -7.5625 2.875 C-4.91186517 0.14640532 -3.73198851 0.20871307 0 0 Z " fill="#184E7E" transform="translate(179.4375,23.3125)"/>
<path d="M0 0 C0.66 0.33 1.32 0.66 2 1 C2 1.33 2 1.66 2 2 C2.33 2.99 2.66 3.98 3 5 C2.75367118 7.59069971 2.44871022 10.11836247 2.0625 12.6875 C1.96259766 13.38939453 1.86269531 14.09128906 1.75976562 14.81445312 C1.51270675 16.54386527 1.25717148 18.2720627 1 20 C-0.65 20.66 -2.3 21.32 -4 22 C-3.34 24.31 -2.68 26.62 -2 29 C-5.78080393 27.73973202 -6.77295425 26.06453466 -9.1875 22.9375 C-9.90292969 22.01839844 -10.61835937 21.09929688 -11.35546875 20.15234375 C-11.89816406 19.44207031 -12.44085938 18.73179688 -13 18 C-13.763125 18.78375 -14.52625 19.5675 -15.3125 20.375 C-18 23 -18 23 -21 25 C-20.7215625 24.1028125 -20.7215625 24.1028125 -20.4375 23.1875 C-19.77906313 20.83591238 -19.77906313 20.83591238 -21 18 C-20.21625 17.9175 -19.4325 17.835 -18.625 17.75 C-15.8553382 17.29150599 -15.8553382 17.29150599 -14.875 15 C-14.441875 14.01 -14.441875 14.01 -14 13 C-13.01 12.67 -12.02 12.34 -11 12 C-10.67 13.32 -10.34 14.64 -10 16 C-9.67 14.35 -9.34 12.7 -9 11 C-8.34 11 -7.68 11 -7 11 C-6.67 9.68 -6.34 8.36 -6 7 C-6.99 7.495 -6.99 7.495 -8 8 C-6.5 5 -6.5 5 -5 2 C-4.01 2.33 -3.02 2.66 -2 3 C-1.34 2.01 -0.68 1.02 0 0 Z " fill="#CF847A" transform="translate(134,17)"/>
<path d="M0 0 C0.33 0 0.66 0 1 0 C1.03963867 0.83772949 1.07927734 1.67545898 1.12011719 2.53857422 C1.27625227 5.64445475 1.44961695 8.74875187 1.63476562 11.85302734 C1.71136297 13.19705105 1.78106708 14.54148598 1.84375 15.88623047 C1.93500754 17.81832372 2.05306915 19.7490924 2.171875 21.6796875 C2.2347168 22.84226074 2.29755859 24.00483398 2.36230469 25.20263672 C2.69646601 28.13430449 2.69646601 28.13430449 5.05175781 29.39501953 C5.69467773 29.59466309 6.33759766 29.79430664 7 30 C7 30.66 7 31.32 7 32 C1.72 32 -3.56 32 -9 32 C-9 31.34 -9 30.68 -9 30 C-7.68 29.67 -6.36 29.34 -5 29 C-5 21.08 -5 13.16 -5 5 C-4.01 4.67 -3.02 4.34 -2 4 C-2 5.32 -2 6.64 -2 8 C-1.34 8 -0.68 8 0 8 C0 5.36 0 2.72 0 0 Z " fill="#30923E" transform="translate(55,82)"/>
<path d="M0 0 C5.62079741 0.40148553 8.20009476 2.01914689 12 6 C12.75 8.5 12.75 8.5 12 11 C8.35592085 14.72882518 6.18066529 16.18803883 1 17 C0.86722656 17.77085938 0.73445312 18.54171875 0.59765625 19.3359375 C0.33275391 20.84027344 0.33275391 20.84027344 0.0625 22.375 C-0.11152344 23.37273438 -0.28554687 24.37046875 -0.46484375 25.3984375 C-1 28 -1 28 -2 30 C-5.93774177 30.36630156 -7.56539771 30.30233203 -10.875 28 C-11.57625 27.34 -12.2775 26.68 -13 26 C-11.99148251 22.6077139 -11.4823515 21.28711399 -8.375 19.4375 C-7.59125 18.963125 -6.8075 18.48875 -6 18 C-6 16.68 -6 15.36 -6 14 C-5.34 13.34 -4.68 12.68 -4 12 C-3.01 12.99 -2.02 13.98 -1 15 C1.97 13.68 4.94 12.36 8 11 C8.67154684 8.71658257 8.67154684 8.71658257 8 6 C6.01461186 4.42823439 3.96877593 3.23287013 1.75 2.015625 C1.1725 1.68046875 0.595 1.3453125 0 1 C0 0.67 0 0.34 0 0 Z " fill="#295E91" transform="translate(195,24)"/>
<path d="M0 0 C0 3 0 3 -1 6 C-1.66 6.61875 -2.32 7.2375 -3 7.875 C-5.33998341 10.36123238 -5.83484465 11.6143153 -6 15 C-5.15020525 17.75256244 -5.15020525 17.75256244 -4 20 C-3.34 20 -2.68 20 -2 20 C-2 23.96 -2 27.92 -2 32 C-2.33 31.34 -2.66 30.68 -3 30 C-3.66 30 -4.32 30 -5 30 C-5 30.99 -5 31.98 -5 33 C-5.99 33.495 -5.99 33.495 -7 34 C-6.65555119 36.47266765 -6.65555119 36.47266765 -6 39 C-5.34 39.33 -4.68 39.66 -4 40 C-3.65657551 41.33076989 -3.32380126 42.66431979 -3 44 C-2.34 44.66 -1.68 45.32 -1 46 C-1 46.66 -1 47.32 -1 48 C-1.66 48 -2.32 48 -3 48 C-4.4375 46.0234375 -4.4375 46.0234375 -6 43.375 C-6.515625 42.51648437 -7.03125 41.65796875 -7.5625 40.7734375 C-11.63822389 32.90994848 -12.6451644 23.98484129 -10.27734375 15.37109375 C-9.31688298 13.13520329 -8.24512841 11.08989399 -7 9 C-6.56816406 8.24460937 -6.13632813 7.48921875 -5.69140625 6.7109375 C-2.41446541 1.2072327 -2.41446541 1.2072327 0 0 Z " fill="#CA786E" transform="translate(88,7)"/>
<path d="M0 0 C6.6 0 13.2 0 20 0 C19.67 0.99 19.34 1.98 19 3 C14.71 2.34 10.42 1.68 6 1 C6 11.56 6 22.12 6 33 C4.35 33 2.7 33 1 33 C0.67 22.11 0.34 11.22 0 0 Z " fill="#CC7466" transform="translate(100,80)"/>
<path d="M0 0 C3.6875 0.375 3.6875 0.375 5.9375 2.8125 C6.515 3.658125 7.0925 4.50375 7.6875 5.375 C8.6775 5.705 9.6675 6.035 10.6875 6.375 C11.0175 5.385 11.3475 4.395 11.6875 3.375 C11.6875 8.325 11.6875 13.275 11.6875 18.375 C8.0575 20.355 4.4275 22.335 0.6875 24.375 C0.6875 22.725 0.6875 21.075 0.6875 19.375 C-1.6225 19.375 -3.9325 19.375 -6.3125 19.375 C-6.9725 17.395 -7.6325 15.415 -8.3125 13.375 C-7.3225 13.87 -7.3225 13.87 -6.3125 14.375 C-2.36679979 15.6902334 0.52713556 15.64341061 4.6875 15.375 C5.6775 14.715 6.6675 14.055 7.6875 13.375 C7.93780977 10.79119823 7.93780977 10.79119823 7.6875 8.375 C4.15338679 6.25453208 0.74356165 5.84300711 -3.3125 5.375 C-3.875 3.4375 -3.875 3.4375 -4.3125 1.375 C-3.3125 0.375 -3.3125 0.375 0 0 Z " fill="#99BB4E" transform="translate(254.3125,25.625)"/>
<path d="M0 0 C2.9375 1.8125 2.9375 1.8125 5 4 C5 4.99 5 5.98 5 7 C3.0625 6.625 3.0625 6.625 1 6 C0.67 5.34 0.34 4.68 0 4 C-2.31 4 -4.62 4 -7 4 C-7 4.99 -7 5.98 -7 7 C-6.30132812 7.12117188 -5.60265625 7.24234375 -4.8828125 7.3671875 C-3.51769531 7.61855469 -3.51769531 7.61855469 -2.125 7.875 C-1.22007812 8.03742187 -0.31515625 8.19984375 0.6171875 8.3671875 C3 9 3 9 5 11 C5.375 13.4375 5.375 13.4375 5 16 C2.55609819 18.95304802 0.90611726 19.00894121 -2.9375 19.375 C-6.6506976 19.22230776 -9.13587674 18.50610785 -12 16 C-12 14.68 -12 13.36 -12 12 C-10.0625 12.375 -10.0625 12.375 -8 13 C-7.67 13.66 -7.34 14.32 -7 15 C-4.36 15 -1.72 15 1 15 C1.33 14.01 1.66 13.02 2 12 C1.31292969 11.95101562 0.62585938 11.90203125 -0.08203125 11.8515625 C-0.98308594 11.77679688 -1.88414062 11.70203125 -2.8125 11.625 C-4.15248047 11.52058594 -4.15248047 11.52058594 -5.51953125 11.4140625 C-8 11 -8 11 -11 9 C-11.4375 6.0625 -11.4375 6.0625 -11 3 C-7.93341962 -0.67989645 -4.54460076 -0.55810887 0 0 Z " fill="#F5F7ED" transform="translate(258,23)"/>
<path d="M0 0 C0.99 0 1.98 0 3 0 C3.10699219 0.71929687 3.21398437 1.43859375 3.32421875 2.1796875 C4.06093959 5.25432591 5.18135176 7.42431405 6.8125 10.125 C7.31394531 10.97320312 7.81539062 11.82140625 8.33203125 12.6953125 C9.88474863 15.08767034 9.88474863 15.08767034 12.19921875 16.6171875 C12.79347656 17.07351562 13.38773438 17.52984375 14 18 C14 18.99 14 19.98 14 21 C6.09169597 20.08750338 6.09169597 20.08750338 3 18 C1.0624949 14.97052382 -0.55221559 11.83769702 -2.21875 8.65234375 C-3.72582397 5.86479974 -3.72582397 5.86479974 -6.21875 5.12890625 C-6.8065625 5.08636719 -7.394375 5.04382813 -8 5 C-8 4.34 -8 3.68 -8 3 C-6.865625 2.690625 -5.73125 2.38125 -4.5625 2.0625 C-1.21224901 1.37075469 -1.21224901 1.37075469 0 0 Z " fill="#6AC5E2" transform="translate(183,94)"/>
<path d="M0 0 C3.63 0 7.26 0 11 0 C11 0.66 11 1.32 11 2 C9.68 2.33 8.36 2.66 7 3 C7 7.29 7 11.58 7 16 C6.67 16 6.34 16 6 16 C5.67 14.35 5.34 12.7 5 11 C4.34 11 3.68 11 3 11 C3 9.68 3 8.36 3 7 C-1.28269843 10.65641135 -2.80700997 14.98283454 -4.62304688 20.13085938 C-5.33984375 21.98046875 -5.33984375 21.98046875 -7 25 C-9.69140625 25.92578125 -9.69140625 25.92578125 -12 26 C-11.35096 22.49518401 -9.87822891 20.00516626 -8 17 C-7.31903578 15.67391178 -6.64669414 14.34313399 -6 13 C-5.34 13 -4.68 13 -4 13 C-3.8453125 11.453125 -3.8453125 11.453125 -3.6875 9.875 C-3.00872203 6.04916055 -1.88841205 3.36629975 0 0 Z " fill="#51A561" transform="translate(50,79)"/>
<path d="M0 0 C2.6875 0.3125 2.6875 0.3125 5 1.875 C7.35603286 5.27815857 7.32823066 7.25453913 6.6875 11.3125 C4.5 14.25 4.5 14.25 1.6875 16.3125 C-0.98828125 16.44140625 -0.98828125 16.44140625 -3.3125 16.3125 C-3.33935095 13.83326199 -3.35926547 11.3543116 -3.375 8.875 C-3.38756836 7.81442383 -3.38756836 7.81442383 -3.40039062 6.73242188 C-3.40903588 4.92556441 -3.36470011 3.11862397 -3.3125 1.3125 C-2.3125 0.3125 -2.3125 0.3125 0 0 Z " fill="#F7FBFB" transform="translate(178.3125,80.6875)"/>
<path d="M0 0 C-0.00785522 1.89890991 -0.00785522 1.89890991 -0.01586914 3.83618164 C-0.03403077 8.55313403 -0.04547271 13.27008334 -0.05493164 17.98706055 C-0.05994639 20.02482626 -0.0667598 22.0625884 -0.07543945 24.1003418 C-0.08763052 27.03695561 -0.09325702 29.97352166 -0.09765625 32.91015625 C-0.10281754 33.81459976 -0.10797882 34.71904327 -0.11329651 35.65089417 C-0.11372606 40.54385305 0.26651663 45.15117981 1 50 C0.5625 53.4375 0.5625 53.4375 0 56 C-0.33 56 -0.66 56 -1 56 C-2.93353292 45.38283264 -3.16242198 35.08571422 -2.92578125 24.30688477 C-2.90902344 23.26072998 -2.89226563 22.2145752 -2.875 21.13671875 C-2.85179687 20.19530029 -2.82859375 19.25388184 -2.8046875 18.28393555 C-2.77001914 15.80045655 -2.77001914 15.80045655 -5 14 C-5.66 14 -6.32 14 -7 14 C-7.875 10.9375 -7.875 10.9375 -8 7 C-6.17570829 3.92187913 -3.82922384 0 0 0 Z " fill="#58B84A" transform="translate(40,5)"/>
<path d="M0 0 C6.52307692 -0.36923077 6.52307692 -0.36923077 8.9375 1.5 C9.288125 1.995 9.63875 2.49 10 3 C10.33 2.34 10.66 1.68 11 1 C12.65 1 14.3 1 16 1 C15.01 2.485 15.01 2.485 14 4 C13.34 4 12.68 4 12 4 C12 5.32 12 6.64 12 8 C7.77050005 10.41685712 4.87664009 11.34833144 0 11 C-1.49297212 8.01405576 -1.11755228 5.29146376 -1 2 C-0.67 1.34 -0.34 0.68 0 0 Z " fill="#1E5786" transform="translate(166,43)"/>
<path d="M0 0 C4.11345859 0.46743848 7.11139055 0.88918982 10 4 C10.5 6.5 10.5 6.5 10 9 C7.11139055 12.11081018 4.11345859 12.53256152 0 13 C-2.44847349 7.95902516 -1.71847703 5.1554311 0 0 Z " fill="#235B8B" transform="translate(194,26)"/>
<path d="M0 0 C0 0.99 0 1.98 0 3 C1.32 3.33 2.64 3.66 4 4 C4 4.66 4 5.32 4 6 C3.34 6 2.68 6 2 6 C2 6.66 2 7.32 2 8 C1.01 8.66 0.02 9.32 -1 10 C-1.72965366 12.56282742 -1.72965366 12.56282742 -2 15 C-2.33 15 -2.66 15 -3 15 C-3.33 19.95 -3.66 24.9 -4 30 C-4.33 30 -4.66 30 -5 30 C-5 22.74 -5 15.48 -5 8 C-5.99 8 -6.98 8 -8 8 C-8.33 5.69 -8.66 3.38 -9 1 C-5.64919071 -1.10976881 -3.77897651 -1.0497157 0 0 Z " fill="#A1C15C" transform="translate(249,16)"/>
<path d="M0 0 C3.93774177 -0.36630156 5.56539771 -0.30233203 8.875 2 C9.926875 2.99 9.926875 2.99 11 4 C9.92598892 6.91517292 9.22189824 8.77810176 7 11 C3.375 11.125 3.375 11.125 0 11 C-1.49297212 8.01405576 -1.11755228 5.29146376 -1 2 C-0.67 1.34 -0.34 0.68 0 0 Z " fill="#22598B" transform="translate(166,11)"/>
<path d="M0 0 C0.33 0 0.66 0 1 0 C1.76636091 3.46089679 2.17149371 6.76077488 2.31640625 10.30078125 C2.37924805 11.76547852 2.37924805 11.76547852 2.44335938 13.25976562 C2.48267578 14.26716797 2.52199219 15.27457031 2.5625 16.3125 C2.60568359 17.33923828 2.64886719 18.36597656 2.69335938 19.42382812 C2.79906825 21.94909569 2.90116468 24.47445562 3 27 C4.65 27.33 6.3 27.66 8 28 C8 28.66 8 29.32 8 30 C3.38 30 -1.24 30 -6 30 C-6 29.34 -6 28.68 -6 28 C-5.360625 27.71125 -4.72125 27.4225 -4.0625 27.125 C-1.84793921 26.17176549 -1.84793921 26.17176549 -1 24 C-0.84693099 22.18828902 -0.75053339 20.3716206 -0.68359375 18.5546875 C-0.64169922 17.47832031 -0.59980469 16.40195313 -0.55664062 15.29296875 C-0.51732422 14.16503906 -0.47800781 13.03710938 -0.4375 11.875 C-0.37272461 10.17150391 -0.37272461 10.17150391 -0.30664062 8.43359375 C-0.2003396 5.62252232 -0.09830595 2.81136055 0 0 Z " fill="#94B64B" transform="translate(237,84)"/>
<path d="M0 0 C2 2 2 2 2.13525391 4.98095703 C2.08288574 6.22731934 2.03051758 7.47368164 1.9765625 8.7578125 C1.95153656 9.42086395 1.92651062 10.08391541 1.90072632 10.76705933 C1.81848733 12.88689015 1.72191635 15.00579437 1.625 17.125 C1.56676418 18.56115994 1.50946081 19.99735802 1.453125 21.43359375 C1.31290458 24.95623602 1.159824 28.4781866 1 32 C-2.74020498 30.31847927 -4.56134348 28.30960527 -7 25 C-5.68 24.67 -4.36 24.34 -3 24 C-3 23.01 -3 22.02 -3 21 C-2.34 21 -1.68 21 -1 21 C-1.00523682 20.39937744 -1.01047363 19.79875488 -1.01586914 19.17993164 C-1.03658014 16.47413162 -1.04964125 13.76834823 -1.0625 11.0625 C-1.07087891 10.11697266 -1.07925781 9.17144531 -1.08789062 8.19726562 C-1.09111328 7.29814453 -1.09433594 6.39902344 -1.09765625 5.47265625 C-1.10289307 4.64000244 -1.10812988 3.80734863 -1.11352539 2.94946289 C-1 1 -1 1 0 0 Z " fill="#96B854" transform="translate(263,83)"/>
<path d="M0 0 C0.33 0 0.66 0 1 0 C1.33 8.58 1.66 17.16 2 26 C2.495 21.545 2.495 21.545 3 17 C3.66 16.67 4.32 16.34 5 16 C5 19.63 5 23.26 5 27 C6.65 27.33 8.3 27.66 10 28 C10 28.66 10 29.32 10 30 C4.72 30 -0.56 30 -6 30 C-5.505 28.515 -5.505 28.515 -5 27 C-3.68 27 -2.36 27 -1 27 C-0.67 18.09 -0.34 9.18 0 0 Z " fill="#66D1ED" transform="translate(170,84)"/>
<path d="M0 0 C0.33 0 0.66 0 1 0 C1 8.58 1 17.16 1 26 C2.32 26 3.64 26 5 26 C5 24.02 5 22.04 5 20 C5.2475 20.61875 5.495 21.2375 5.75 21.875 C7.20628639 24.35068687 8.37812506 24.95125002 11 26 C11 26.66 11 27.32 11 28 C5.72 28 0.44 28 -5 28 C-5 27.34 -5 26.68 -5 26 C-3.68 25.67 -2.36 25.34 -1 25 C-1.00523682 24.27820557 -1.01047363 23.55641113 -1.01586914 22.81274414 C-1.03657358 19.56267151 -1.04963918 16.31261272 -1.0625 13.0625 C-1.07087891 11.92619141 -1.07925781 10.78988281 -1.08789062 9.61914062 C-1.09111328 8.53955078 -1.09433594 7.45996094 -1.09765625 6.34765625 C-1.10289307 5.34742432 -1.10812988 4.34719238 -1.11352539 3.31665039 C-1 1 -1 1 0 0 Z " fill="#38884E" transform="translate(51,86)"/>
<path d="M0 0 C2.97 0 5.94 0 9 0 C8.67 1.65 8.34 3.3 8 5 C8.99 5 9.98 5 11 5 C9.25 9.875 9.25 9.875 7 11 C6.67 17.27 6.34 23.54 6 30 C5.67 30 5.34 30 5 30 C4.67 21.75 4.34 13.5 4 5 C1.525 4.01 1.525 4.01 -1 3 C-0.67 2.01 -0.34 1.02 0 0 Z " fill="#9DBE61" transform="translate(231,78)"/>
<path d="M0 0 C4.29 0 8.58 0 13 0 C12.67 1.32 12.34 2.64 12 4 C11.01 4 10.02 4 9 4 C8.67 4.99 8.34 5.98 8 7 C7.67 6.67 7.34 6.34 7 6 C6.67 12.6 6.34 19.2 6 26 C5.34 26 4.68 26 4 26 C4 19.07 4 12.14 4 5 C1.525 4.01 1.525 4.01 -1 3 C-0.67 2.01 -0.34 1.02 0 0 Z " fill="#B4CB81" transform="translate(256,78)"/>
<path d="M0 0 C2.66666667 0.66666667 5.33333333 1.33333333 8 2 C8 1.34 8 0.68 8 0 C10.64 0.33 13.28 0.66 16 1 C16 2.32 16 3.64 16 5 C13 6 13 6 10 5 C10 5.66 10 6.32 10 7 C5.6822542 6.49202991 1.96697886 5.80317221 -2 4 C-2 3.34 -2 2.68 -2 2 C-1.34 2 -0.68 2 0 2 C0 1.34 0 0.68 0 0 Z " fill="#99BF48" transform="translate(236,56)"/>
<path d="M0 0 C8.25 0 16.5 0 25 0 C25.33 2.97 25.66 5.94 26 9 C25.01 9 24.02 9 23 9 C22.375 6.6875 22.375 6.6875 22 4 C22.66 3.01 23.32 2.02 24 1 C14.595 1.495 14.595 1.495 5 2 C5 11.24 5 20.48 5 30 C4.67 30 4.34 30 4 30 C3.67 21.09 3.34 12.18 3 3 C2.01 2.67 1.02 2.34 0 2 C0 1.34 0 0.68 0 0 Z " fill="#B28080" transform="translate(96,79)"/>
<path d="M0 0 C0.66 1.32 1.32 2.64 2 4 C5.00440021 6.00293347 6.70993945 6.49271626 10.1875 7.125 C11.53908203 7.37636719 11.53908203 7.37636719 12.91796875 7.6328125 C13.60503906 7.75398438 14.29210937 7.87515625 15 8 C14.67 9.32 14.34 10.64 14 12 C12.72125 12.061875 11.4425 12.12375 10.125 12.1875 C9.40570313 12.22230469 8.68640625 12.25710937 7.9453125 12.29296875 C7.30335938 12.19628906 6.66140625 12.09960938 6 12 C5.34 11.01 4.68 10.02 4 9 C3.01 8.67 2.02 8.34 1 8 C1 11.63 1 15.26 1 19 C0.67 19 0.34 19 0 19 C0 12.73 0 6.46 0 0 Z " fill="#8FB33D" transform="translate(245,27)"/>
<path d="M0 0 C1.32 0 2.64 0 4 0 C4.02694851 1.95825873 4.04637218 3.91662226 4.0625 5.875 C4.07410156 6.96554688 4.08570313 8.05609375 4.09765625 9.1796875 C4 12 4 12 3 14 C3.66 14 4.32 14 5 14 C4.34 18.62 3.68 23.24 3 28 C2.34 27.67 1.68 27.34 1 27 C0.67 18.09 0.34 9.18 0 0 Z " fill="#6ECEF1" transform="translate(170,83)"/>
<path d="M0 0 C2.5 0.25 2.5 0.25 4.5 2.25 C4.75 4.75 4.75 4.75 4.5 7.25 C2.5 9.25 2.5 9.25 0 9.5 C-2.5 9.25 -2.5 9.25 -4.5 7.25 C-4.75 4.75 -4.75 4.75 -4.5 2.25 C-2.5 0.25 -2.5 0.25 0 0 Z " fill="#7AD9F3" transform="translate(179.5,27.75)"/>
<path d="M0 0 C0.66 0 1.32 0 2 0 C1.67 2.97 1.34 5.94 1 9 C-4.28 9 -9.56 9 -15 9 C-15 8.34 -15 7.68 -15 7 C-12.43106162 5.71553081 -10.23423663 5.67022856 -7.375 5.4375 C-6.37210938 5.35371094 -5.36921875 5.26992187 -4.3359375 5.18359375 C-3.56507812 5.12300781 -2.79421875 5.06242187 -2 5 C-1.34 3.35 -0.68 1.7 0 0 Z " fill="#B76E66" transform="translate(122,105)"/>
<path d="M0 0 C2.51629258 1.45520535 4.76381991 3.14754312 7 5 C6.67 5.99 6.34 6.98 6 8 C5.13375 7.360625 4.2675 6.72125 3.375 6.0625 C0.0401188 4.02451704 -2.16047478 3.36566907 -6 3 C-6.33 6.96 -6.66 10.92 -7 15 C-7.66 14.67 -8.32 14.34 -9 14 C-9.08114106 12.22992286 -9.13925505 10.45877902 -9.1875 8.6875 C-9.22230469 7.70136719 -9.25710937 6.71523437 -9.29296875 5.69921875 C-9 3 -9 3 -7.66015625 1.17578125 C-4.96143391 -0.73554916 -3.23266581 -0.4973332 0 0 Z " fill="#72C7E0" transform="translate(172,8)"/>
<path d="M0 0 C5.62079741 0.40148553 8.20009476 2.01914689 12 6 C12.75 8.5 12.75 8.5 12 11 C8.20009476 14.98085311 5.62079741 16.59851447 0 17 C2.31944788 13.52082818 4.26369964 12.70570234 8 11 C8.67154684 8.71658257 8.67154684 8.71658257 8 6 C6.01461186 4.42823439 3.96877593 3.23287013 1.75 2.015625 C1.1725 1.68046875 0.595 1.3453125 0 1 C0 0.67 0 0.34 0 0 Z " fill="#7ED7EE" transform="translate(195,24)"/>
<path d="M0 0 C-0.86625 0.45439453 -0.86625 0.45439453 -1.75 0.91796875 C-6.30575389 3.33878921 -6.30575389 3.33878921 -9 7.5 C-7.3743326 11.56416849 -3.75624536 13.02964808 0 15 C-1.8046875 15.609375 -1.8046875 15.609375 -4 16 C-7.61234904 13.97708454 -9.6924792 12.46128121 -12 9 C-11.9375 6.5625 -11.9375 6.5625 -11 4 C-5.03144654 -1.50943396 -5.03144654 -1.50943396 0 0 Z " fill="#7CD7ED" transform="translate(164,25)"/>
<path d="M0 0 C0.66 0.33 1.32 0.66 2 1 C2 1.33 2 1.66 2 2 C2.33 2.99 2.66 3.98 3 5 C2.0625 8.1875 2.0625 8.1875 1 11 C-1.97 10.505 -1.97 10.505 -5 10 C-5 8.68 -5 7.36 -5 6 C-5.99 6.66 -6.98 7.32 -8 8 C-7 6 -6 4 -5 2 C-4.01 2.33 -3.02 2.66 -2 3 C-1.34 2.01 -0.68 1.02 0 0 Z M-4 12 C-3.67 12.66 -3.34 13.32 -3 14 C-3.66 13.67 -4.32 13.34 -5 13 C-4.67 12.67 -4.34 12.34 -4 12 Z " fill="#D4887F" transform="translate(134,17)"/>
<path d="M0 0 C0.66 0 1.32 0 2 0 C2.33 2.97 2.66 5.94 3 9 C4.32 9.33 5.64 9.66 7 10 C7 10.66 7 11.32 7 12 C3.04 12 -0.92 12 -5 12 C-5 11.01 -5 10.02 -5 9 C-4.360625 8.566875 -3.72125 8.13375 -3.0625 7.6875 C-0.67933367 6.08674484 -0.67933367 6.08674484 -0.25 2.8125 C-0.1675 1.884375 -0.085 0.95625 0 0 Z " fill="#38904A" transform="translate(22,102)"/>
<path d="M0 0 C3 2 3 2 3.6875 4.625 C3.790625 5.40875 3.89375 6.1925 4 7 C4.66 7 5.32 7 6 7 C6.33 6.01 6.66 5.02 7 4 C6.56826373 9.09448798 6.24599784 12.84512277 3 17 C2.34 17 1.68 17 1 17 C0.93941406 16.37351562 0.87882812 15.74703125 0.81640625 15.1015625 C0.73261719 14.28429687 0.64882813 13.46703125 0.5625 12.625 C0.48128906 11.81289062 0.40007813 11.00078125 0.31640625 10.1640625 C0.10909886 7.95727195 0.10909886 7.95727195 -1 6 C-0.34 5.34 0.32 4.68 1 4 C0.6814823 1.89179203 0.6814823 1.89179203 0 0 Z " fill="#398F48" transform="translate(35,97)"/>
<path d="M0 0 C1.8125 0.125 1.8125 0.125 4 1 C6.65016506 5.06989634 7.43849044 8.17660519 7 13 C6.67 13.66 6.34 14.32 6 15 C5.34 15 4.68 15 4 15 C-0.59225513 5.77448747 -0.59225513 5.77448747 0 0 Z " fill="#379C43" transform="translate(27,87)"/>
<path d="M0 0 C0.66 0 1.32 0 2 0 C2 0.66 2 1.32 2 2 C2.66 2 3.32 2 4 2 C6.04169485 4.90548882 7 6.40142046 7 10 C6.34 10 5.68 10 5 10 C3.375 8 3.375 8 2 6 C2.33 8.31 2.66 10.62 3 13 C2.01 13.495 2.01 13.495 1 14 C1 12.68 1 11.36 1 10 C0.01 9.67 -0.98 9.34 -2 9 C-2.33 7.35 -2.66 5.7 -3 4 C-2.01 3.67 -1.02 3.34 0 3 C0 2.01 0 1.02 0 0 Z " fill="#CF766E" transform="translate(83,37)"/>
<path d="M0 0 C3.6875 0.375 3.6875 0.375 5.9375 2.75 C6.515 3.61625 7.0925 4.4825 7.6875 5.375 C8.6775 6.035 9.6675 6.695 10.6875 7.375 C10.3575 9.025 10.0275 10.675 9.6875 12.375 C9.44 11.75625 9.1925 11.1375 8.9375 10.5 C7.40158885 7.88895104 6.53083561 7.37400981 3.6875 6.375 C1.36254723 5.98750787 -0.97101268 5.64517161 -3.3125 5.375 C-3.875 3.4375 -3.875 3.4375 -4.3125 1.375 C-3.3125 0.375 -3.3125 0.375 0 0 Z " fill="#A0BE5C" transform="translate(254.3125,25.625)"/>
<path d="M0 0 C3.63 0 7.26 0 11 0 C12.32 2.64 13.64 5.28 15 8 C14.34 8.66 13.68 9.32 13 10 C10.2160817 8.60804085 10.02101003 6.84424221 9 4 C5.80097361 3.91113816 3.07322544 4.08941469 0 5 C-0.33 4.01 -0.66 3.02 -1 2 C-0.67 1.34 -0.34 0.68 0 0 Z " fill="#296793" transform="translate(173,25)"/>
<path d="M0 0 C1.27778713 2.98400877 0.92753449 4.23837339 -0.0390625 7.41796875 C-0.55536535 8.67960111 -1.08446002 9.93606028 -1.625 11.1875 C-1.87378906 11.82880859 -2.12257813 12.47011719 -2.37890625 13.13085938 C-3.1640625 14.98046875 -3.1640625 14.98046875 -5 18 C-7.7109375 18.92578125 -7.7109375 18.92578125 -10 19 C-9.35096 15.49518401 -7.87822891 13.00516626 -6 10 C-5.31903578 8.67391178 -4.64669414 7.34313399 -4 6 C-3.34 6 -2.68 6 -2 6 C-2 4.35 -2 2.7 -2 1 C-1.34 0.67 -0.68 0.34 0 0 Z " fill="#4C965C" transform="translate(48,86)"/>
<path d="M0 0 C4 4.75 4 4.75 4 7 C7.3 7 10.6 7 14 7 C13.34 8.32 12.68 9.64 12 11 C10.35 10.67 8.7 10.34 7 10 C6.67 10.99 6.34 11.98 6 13 C5.649375 12.54625 5.29875 12.0925 4.9375 11.625 C2.22903794 9.35338666 -0.60795328 8.83201146 -4 8 C-4 7.67 -4 7.34 -4 7 C-2.35 7 -0.7 7 1 7 C0.67 4.69 0.34 2.38 0 0 Z " fill="#74CDE8" transform="translate(170,34)"/>
<path d="M0 0 C1.67578125 1.1640625 1.67578125 1.1640625 3 3 C3.29296875 5.69921875 3.29296875 5.69921875 3.1875 8.6875 C3.16042969 9.68136719 3.13335937 10.67523438 3.10546875 11.69921875 C3.07066406 12.45847656 3.03585938 13.21773437 3 14 C2.01 14.495 2.01 14.495 1 15 C0.67 11.37 0.34 7.74 0 4 C-4.71757323 2.44773128 -4.71757323 2.44773128 -7.1875 4.4375 C-7.785625 4.953125 -8.38375 5.46875 -9 6 C-9.66 6 -10.32 6 -11 6 C-8.66339867 0.60784308 -5.78127861 -0.60221652 0 0 Z " fill="#84E2F5" transform="translate(193,8)"/>
<path d="M0 0 C0 3 0 3 -1 6 C-1.598125 6.515625 -2.19625 7.03125 -2.8125 7.5625 C-8.95073136 14.40224352 -9.69625619 23.16105527 -10 32 C-10.33 32 -10.66 32 -11 32 C-11.44248281 23.35929403 -11.48714346 16.53147552 -7 9 C-6.56816406 8.24460937 -6.13632813 7.48921875 -5.69140625 6.7109375 C-2.41446541 1.2072327 -2.41446541 1.2072327 0 0 Z " fill="#A57575" transform="translate(88,7)"/>
<path d="M0 0 C0.99 0 1.98 0 3 0 C4.49297212 2.98594424 4.11755228 5.70853624 4 9 C3.67 9.66 3.34 10.32 3 11 C-0.93774177 11.36630156 -2.56539771 11.30233203 -5.875 9 C-6.57625 8.34 -7.2775 7.68 -8 7 C-7.3125 4.5625 -7.3125 4.5625 -6 2 C-3.375 1.1875 -3.375 1.1875 -1 1 C-2.32 2.32 -3.64 3.64 -5 5 C-4.34 5 -3.68 5 -3 5 C-3.33 5.99 -3.66 6.98 -4 8 C-2.02 8.66 -0.04 9.32 2 10 C2 7.03 2 4.06 2 1 C1.34 0.67 0.68 0.34 0 0 Z " fill="#1A5381" transform="translate(190,43)"/>
<path d="M0 0 C3.72754825 -0.3470476 7.28312767 -0.51267205 11 0 C13.75 2.625 13.75 2.625 15 6 C14.84478374 9.95801463 14.20965658 11.68551513 12 15 C11.01 14.67 10.02 14.34 9 14 C9.61277612 11.03824877 10.25372522 9.61941217 12 7 C11.19838209 4.32854463 11.19838209 4.32854463 10 2 C6.7 2 3.4 2 0 2 C0 1.34 0 0.68 0 0 Z " fill="#1A5282" transform="translate(174,24)"/>
<path d="M0 0 C0.66 0.33 1.32 0.66 2 1 C2 1.99 2 2.98 2 4 C3.32 3.67 4.64 3.34 6 3 C4.69715366 6.90853901 3.2920056 9.46045282 0 12 C-2.75 12.25 -2.75 12.25 -5 12 C-4.360625 11.13375 -3.72125 10.2675 -3.0625 9.375 C-1.02451704 6.0401188 -0.36566907 3.83952522 0 0 Z " fill="#C77069" transform="translate(109,34)"/>
<path d="M0 0 C0.66 0.66 1.32 1.32 2 2 C3.93257855 2.36831081 3.93257855 2.36831081 6.1328125 2.4140625 C7.34130859 2.47207031 7.34130859 2.47207031 8.57421875 2.53125 C9.83685547 2.57765625 9.83685547 2.57765625 11.125 2.625 C11.97449219 2.66367187 12.82398437 2.70234375 13.69921875 2.7421875 C15.79911684 2.83656494 17.89952891 2.91937586 20 3 C20 3.66 20 4.32 20 5 C13.07 5 6.14 5 -1 5 C-0.67 3.35 -0.34 1.7 0 0 Z " fill="#C9847A" transform="translate(88,27)"/>
<path d="M0 0 C0.33 0 0.66 0 1 0 C1.02505615 0.66008057 1.0501123 1.32016113 1.07592773 2.00024414 C1.19271752 5.02115369 1.31506446 8.04181422 1.4375 11.0625 C1.47681641 12.10083984 1.51613281 13.13917969 1.55664062 14.20898438 C1.81471113 20.64232455 1.81471113 20.64232455 2.5625 27.03125 C3.04053021 30.27502646 2.69947765 32.81349072 2 36 C1.67 36 1.34 36 1 36 C-1.25985173 23.84162419 -0.89865502 12.29168263 0 0 Z " fill="#86C77F" transform="translate(38,25)"/>
<path d="M0 0 C0.66 0 1.32 0 2 0 C1.67 1.65 1.34 3.3 1 5 C2.65 5 4.3 5 6 5 C5.443125 5.268125 4.88625 5.53625 4.3125 5.8125 C-0.62575086 8.06711799 -0.62575086 8.06711799 -4 12 C-4.66 12 -5.32 12 -6 12 C-6 11.01 -6 10.02 -6 9 C-5.34 9 -4.68 9 -4 9 C-4 8.34 -4 7.68 -4 7 C-6.31 7 -8.62 7 -11 7 C-11 6.67 -11 6.34 -11 6 C-9.741875 5.938125 -8.48375 5.87625 -7.1875 5.8125 C-4.99117898 5.6157972 -4.99117898 5.6157972 -3 5 C-1.08255407 2.55690423 -1.08255407 2.55690423 0 0 Z " fill="#83E2F6" transform="translate(187,36)"/>
<path d="M0 0 C0.66 0 1.32 0 2 0 C2 0.99 2 1.98 2 3 C1.34 3 0.68 3 0 3 C0 3.66 0 4.32 0 5 C2.64 5 5.28 5 8 5 C8 5.33 8 5.66 8 6 C7.39671875 6.01417969 6.7934375 6.02835938 6.171875 6.04296875 C0.71123416 6.31278946 0.71123416 6.31278946 -3.5625 9.5625 C-4.036875 10.366875 -4.51125 11.17125 -5 12 C-5.33 11.01 -5.66 10.02 -6 9 C-5.67 8.34 -5.34 7.68 -5 7 C-6.65 7 -8.3 7 -10 7 C-9.443125 6.731875 -8.88625 6.46375 -8.3125 6.1875 C-3.37424914 3.93288201 -3.37424914 3.93288201 0 0 Z " fill="#82E2F7" transform="translate(176,17)"/>
<path d="M0 0 C0.33 0 0.66 0 1 0 C1 3.63 1 7.26 1 11 C2.65 11.33 4.3 11.66 6 12 C6 12.66 6 13.32 6 14 C0.72 14 -4.56 14 -10 14 C-9.67 13.01 -9.34 12.02 -9 11 C-7.02 11 -5.04 11 -3 11 C-3 11.66 -3 12.32 -3 13 C-2.01 12.67 -1.02 12.34 0 12 C0 8.04 0 4.08 0 0 Z " fill="#68C2DC" transform="translate(174,100)"/>
<path d="M0 0 C1.9375 0.375 1.9375 0.375 4 1 C4.33 1.66 4.66 2.32 5 3 C7.32156597 3.40729228 9.6568787 3.74438677 12 4 C12.33 4.99 12.66 5.98 13 7 C3.95423341 7.45995423 3.95423341 7.45995423 0 4 C0 2.68 0 1.36 0 0 Z " fill="#EEF4E0" transform="translate(246,35)"/>
<path d="M0 0 C0.12375 0.556875 0.2475 1.11375 0.375 1.6875 C1.05976855 4.22114364 1.99133763 6.57921032 3 9 C1.35 8.01 -0.3 7.02 -2 6 C-3.98 8.31 -5.96 10.62 -8 13 C-8 12.01 -8 11.02 -8 10 C-8.3062434 8.66018514 -8.63451555 7.32488113 -9 6 C-7.824375 5.87625 -7.824375 5.87625 -6.625 5.75 C-3.85955198 5.28474077 -3.85955198 5.28474077 -2.8125 3 C-2.544375 2.34 -2.27625 1.68 -2 1 C-1.34 0.67 -0.68 0.34 0 0 Z " fill="#E9D8D9" transform="translate(122,29)"/>
<path d="M0 0 C3.57410797 2.68058098 6.31941902 5.42589203 9 9 C7.68 9.99 6.36 10.98 5 12 C2.65398514 9.86725921 1.13735551 7.97462211 0 5 C-0.125 2.25 -0.125 2.25 0 0 Z " fill="#99BF48" transform="translate(247,90)"/>
<path d="M0 0 C0.33 1.32 0.66 2.64 1 4 C1.66 4 2.32 4 3 4 C3 7.96 3 11.92 3 16 C2.01 16 1.02 16 0 16 C0 10.72 0 5.44 0 0 Z " fill="#3A9D42" transform="translate(52,86)"/>
<path d="M0 0 C1.918125 0.4640625 1.918125 0.4640625 3.875 0.9375 C8.88758722 2.06114833 13.88510956 2.59422581 19 3 C19 3.66 19 4.32 19 5 C11.87399867 5.35368021 6.52940894 4.95671348 0 2 C0 1.34 0 0.68 0 0 Z " fill="#2B567E" transform="translate(165,60)"/>
<path d="M0 0 C2.51012963 2.51012963 2.29721609 3.46805237 2.3125 6.9375 C2.32925781 7.81277344 2.34601563 8.68804687 2.36328125 9.58984375 C2 12 2 12 0.6796875 13.8046875 C-1.82528107 15.58729304 -4.01645945 15.1989027 -7 15 C-7 14.34 -7 13.68 -7 13 C-6.195625 12.87625 -5.39125 12.7525 -4.5625 12.625 C-3.716875 12.41875 -2.87125 12.2125 -2 12 C-0.78306124 9.56612247 -0.68040104 7.58161154 -0.4375 4.875 C-0.35371094 3.96492188 -0.26992187 3.05484375 -0.18359375 2.1171875 C-0.12300781 1.41851562 -0.06242188 0.71984375 0 0 Z " fill="#81DEF1" transform="translate(194,42)"/>
<path d="M0 0 C0.66 0.99 1.32 1.98 2 3 C1.125 5.6875 1.125 5.6875 0 8 C0.66 8 1.32 8 2 8 C2 8.66 2 9.32 2 10 C-0.31 10 -2.62 10 -5 10 C-5 9.34 -5 8.68 -5 8 C-4.34 8 -3.68 8 -3 8 C-3.33 6.35 -3.66 4.7 -4 3 C-2.68 2.01 -1.36 1.02 0 0 Z " fill="#6BC3E0" transform="translate(181,12)"/>
<path d="M0 0 C0.33 0 0.66 0 1 0 C1.06058594 0.69867188 1.12117187 1.39734375 1.18359375 2.1171875 C1.26738281 3.02726562 1.35117188 3.93734375 1.4375 4.875 C1.55931641 6.23238281 1.55931641 6.23238281 1.68359375 7.6171875 C1.86989285 10.01110861 1.86989285 10.01110861 3 12 C5.02463255 12.65213292 5.02463255 12.65213292 7 13 C7 13.66 7 14.32 7 15 C2.49094708 15.36559889 2.49094708 15.36559889 0.34765625 13.76953125 C-1.36298481 11.52338516 -1.34311183 10.29335495 -1.25 7.5 C-1.23453125 6.7265625 -1.2190625 5.953125 -1.203125 5.15625 C-1 3 -1 3 0 0 Z " fill="#83DCF2" transform="translate(164,42)"/>
<path d="M0 0 C0.99 0.33 1.98 0.66 3 1 C2.01 1.495 2.01 1.495 1 2 C1 2.66 1 3.32 1 4 C1.99 3.67 2.98 3.34 4 3 C4.99 3.99 5.98 4.98 7 6 C6.67 6.66 6.34 7.32 6 8 C5.34 7.34 4.68 6.68 4 6 C1.71271266 7.83883881 1.71271266 7.83883881 1.875 10.625 C1.936875 11.800625 1.936875 11.800625 2 13 C-2 5.28571429 -2 5.28571429 -2 1 C-1.34 0.67 -0.68 0.34 0 0 Z " fill="#C0716A" transform="translate(109,20)"/>
<path d="M0 0 C0.99 1.32 1.98 2.64 3 4 C1.5459375 4.8971875 1.5459375 4.8971875 0.0625 5.8125 C-3.23052042 7.71127509 -3.23052042 7.71127509 -4 11 C-4.66 11 -5.32 11 -6 11 C-6.66 12.32 -7.32 13.64 -8 15 C-9 13 -9 13 -9 10 C-7 8 -7 8 -3.9375 5.5625 C-0.80828301 3.26988259 -0.80828301 3.26988259 0 0 Z " fill="#2C6396" transform="translate(161,5)"/>
<path d="M0 0 C7.12600133 -0.35368021 12.47059106 0.04328652 19 3 C15.53733006 4.15422331 13.13251718 3.99544035 9.5 3.75 C8.3553125 3.68296875 7.210625 3.6159375 6.03125 3.546875 C2.88244047 2.97879081 1.88654533 2.50641023 0 0 Z " fill="#C3837A" transform="translate(105,0)"/>
<path d="M0 0 C1.5625 1.25 1.5625 1.25 3 3 C2.6875 5.1875 2.6875 5.1875 2 7 C0.68 7 -0.64 7 -2 7 C-2.33 7.66 -2.66 8.32 -3 9 C-3.66 9 -4.32 9 -5 9 C-5 7.02 -5 5.04 -5 3 C-4.360625 2.87625 -3.72125 2.7525 -3.0625 2.625 C-2.0415625 2.315625 -2.0415625 2.315625 -1 2 C-0.67 1.34 -0.34 0.68 0 0 Z " fill="#4892B7" transform="translate(168,36)"/>
<path d="M0 0 C2 2 2 2 2.04345703 3.87939453 C1.94919434 4.62302246 1.85493164 5.36665039 1.7578125 6.1328125 C1.66113281 6.93847656 1.56445312 7.74414062 1.46484375 8.57421875 C1.35269531 9.41597656 1.24054688 10.25773437 1.125 11.125 C1.02058594 11.97449219 0.91617187 12.82398437 0.80859375 13.69921875 C0.54885849 15.8007131 0.27568684 17.90053872 0 20 C-0.33 20 -0.66 20 -1 20 C-1.02888514 16.85418577 -1.04675923 13.70840531 -1.0625 10.5625 C-1.07087891 9.66466797 -1.07925781 8.76683594 -1.08789062 7.84179688 C-1.09111328 6.98779297 -1.09433594 6.13378906 -1.09765625 5.25390625 C-1.10551147 4.06776733 -1.10551147 4.06776733 -1.11352539 2.85766602 C-1 1 -1 1 0 0 Z " fill="#8AAD3C" transform="translate(263,83)"/>
<path d="M0 0 C0.99 0 1.98 0 3 0 C3 3.96 3 7.92 3 12 C2.01 12 1.02 12 0 12 C0 10.68 0 9.36 0 8 C-0.66 7.67 -1.32 7.34 -2 7 C-1.01 6.67 -0.02 6.34 1 6 C0.67 4.02 0.34 2.04 0 0 Z " fill="#B37A78" transform="translate(116,90)"/>
<path d="M0 0 C0.66 0 1.32 0 2 0 C2.28875 0.969375 2.5775 1.93875 2.875 2.9375 C3.64214682 6.10664203 3.64214682 6.10664203 6 7 C6.34342449 8.33076989 6.67619874 9.66431979 7 11 C7.66 11.66 8.32 12.32 9 13 C9 13.66 9 14.32 9 15 C8.34 15 7.68 15 7 15 C5.52734375 12.98828125 5.52734375 12.98828125 3.9375 10.3125 C3.41027344 9.44238281 2.88304688 8.57226562 2.33984375 7.67578125 C1.03288263 5.0656694 0.41943514 2.87390743 0 0 Z " fill="#AE7270" transform="translate(78,40)"/>
<path d="M0 0 C0.61875 0.474375 1.2375 0.94875 1.875 1.4375 C3.90705546 3.02417441 3.90705546 3.02417441 6 4 C5.625 5.9375 5.625 5.9375 5 8 C4.01 8.495 4.01 8.495 3 9 C3 8.34 3 7.68 3 7 C1.68 6.67 0.36 6.34 -1 6 C-1 2 -1 2 0 0 Z " fill="#4790B5" transform="translate(190,36)"/>
<path d="M0 0 C0.66 0.33 1.32 0.66 2 1 C2 5.29 2 9.58 2 14 C0.68 14.33 -0.64 14.66 -2 15 C-2 14.34 -2 13.68 -2 13 C-1.34 13 -0.68 13 0 13 C0 8.71 0 4.42 0 0 Z " fill="#CC7A76" transform="translate(103,97)"/>
<path d="M0 0 C0.66 1.32 1.32 2.64 2 4 C-1.61139896 7.61139896 -1.61139896 7.61139896 -4 9 C-7.875 8.8125 -7.875 8.8125 -11 8 C-11 7.67 -11 7.34 -11 7 C-3.57142857 4.85714286 -3.57142857 4.85714286 0 4 C0 2.68 0 1.36 0 0 Z " fill="#76CEE8" transform="translate(178,47)"/>
<path d="M0 0 C0.99 0.495 0.99 0.495 2 1 C1.67 1.66 1.34 2.32 1 3 C1.99 3.33 2.98 3.66 4 4 C3.67 4.33 3.34 4.66 3 5 C4.32 5.66 5.64 6.32 7 7 C4 9 4 9 0 9 C0 6.03 0 3.06 0 0 Z " fill="#2D5C91" transform="translate(167,44)"/>
<path d="M0 0 C5.39286575 0.43142926 8.80486318 1.52110606 13 5 C13 5.99 13 6.98 13 8 C10 7 10 7 8.75 5.5625 C6.170055 3.25897767 3.30722434 2.81120597 0 2 C0 1.34 0 0.68 0 0 Z " fill="#2D577D" transform="translate(186,1)"/>
<path d="M0 0 C2.5 1.3125 2.5 1.3125 5 3 C5 3.99 5 4.98 5 6 C0.94393835 5.53199289 -2.46588679 5.12046792 -6 3 C-3.50907189 1.75453595 -2.58919267 2.2232422 0 3 C0 2.01 0 1.02 0 0 Z " fill="#78C1D8" transform="translate(192,109)"/>
<path d="M0 0 C0.33 0 0.66 0 1 0 C1 1.65 1 3.3 1 5 C1.66 5 2.32 5 3 5 C3 6.65 3 8.3 3 10 C2.01 10 1.02 10 0 10 C0.33 10.99 0.66 11.98 1 13 C0.34 13.99 -0.32 14.98 -1 16 C-0.67 10.72 -0.34 5.44 0 0 Z " fill="#4D995D" transform="translate(22,92)"/>
<path d="M0 0 C0.99 0 1.98 0 3 0 C3 0.66 3 1.32 3 2 C2.34 2 1.68 2 1 2 C1.165 2.680625 1.33 3.36125 1.5 4.0625 C2.07089059 7.4164822 2.06659023 10.60389805 2 14 C1.34 14 0.68 14 0 14 C-1.33257403 4.58997722 -1.33257403 4.58997722 0 0 Z " fill="#288A38" transform="translate(23,83)"/>
<path d="M0 0 C2.3125 0.8125 2.3125 0.8125 4 2 C3.67 2.99 3.34 3.98 3 5 C1.0625 5.5625 1.0625 5.5625 -1 6 C-1.66 6.66 -2.32 7.32 -3 8 C-3.66 6.35 -4.32 4.7 -5 3 C-2.75 1.375 -2.75 1.375 0 0 Z " fill="#448DB1" transform="translate(193,21)"/>
<path d="M0 0 C0.33 0.66 0.66 1.32 1 2 C3.02463255 2.65213292 3.02463255 2.65213292 5 3 C5 4.32 5 5.64 5 7 C4.34 7.66 3.68 8.32 3 9 C2.54625 8.525625 2.0925 8.05125 1.625 7.5625 C0.06741796 5.90972192 0.06741796 5.90972192 -2 5 C-2 4.34 -2 3.68 -2 3 C-1.34 3 -0.68 3 0 3 C0 2.01 0 1.02 0 0 Z " fill="#4790B4" transform="translate(165,20)"/>
<path d="M0 0 C0.66 0.66 1.32 1.32 2 2 C1.67 2.66 1.34 3.32 1 4 C0.77377919 5.70363822 0.59111527 7.41328701 0.4375 9.125 C0.31181641 10.49011719 0.31181641 10.49011719 0.18359375 11.8828125 C0.12300781 12.58148438 0.06242188 13.28015625 0 14 C-0.66 13.67 -1.32 13.34 -2 13 C-2.05391993 11.20866022 -2.09275571 9.41686101 -2.125 7.625 C-2.14820313 6.62726562 -2.17140625 5.62953125 -2.1953125 4.6015625 C-2 2 -2 2 0 0 Z " fill="#80DDF3" transform="translate(165,9)"/>
<path d="M0 0 C0.66 0 1.32 0 2 0 C1.67 2.97 1.34 5.94 1 9 C-0.65 8.67 -2.3 8.34 -4 8 C-2.68 5.36 -1.36 2.72 0 0 Z " fill="#C07D75" transform="translate(122,105)"/>
<path d="M0 0 C1.485 0.99 1.485 0.99 3 2 C3.29296875 4.8203125 3.29296875 4.8203125 3.1875 8.125 C3.16042969 9.22070312 3.13335937 10.31640625 3.10546875 11.4453125 C3.07066406 12.28835937 3.03585938 13.13140625 3 14 C-0.67326733 9.26732673 -0.67326733 9.26732673 -1 6 C-0.34 5.34 0.32 4.68 1 4 C0.6814823 1.89179203 0.6814823 1.89179203 0 0 Z " fill="#379842" transform="translate(35,97)"/>
<path d="M0 0 C3.63 0 7.26 0 11 0 C11 0.66 11 1.32 11 2 C8.03 2 5.06 2 2 2 C2.33 2.99 2.66 3.98 3 5 C2.01 4.67 1.02 4.34 0 4 C0 2.68 0 1.36 0 0 Z " fill="#398F43" transform="translate(50,79)"/>
<path d="M0 0 C1.9375 0.75 1.9375 0.75 4 2 C4.75 4.125 4.75 4.125 5 6 C2.03 5.505 2.03 5.505 -1 5 C-0.67 3.35 -0.34 1.7 0 0 Z " fill="#6BCFF3" transform="translate(187,106)"/>
<path d="M0 0 C3 3.75 3 3.75 3 6 C3.66 6.33 4.32 6.66 5 7 C5 9.31 5 11.62 5 14 C1.70092647 10.70092647 0.10871274 6.70316627 -0.1875 2.0625 C-0.125625 1.381875 -0.06375 0.70125 0 0 Z " fill="#378C52" transform="translate(27,88)"/>
<path d="M0 0 C0.99 0 1.98 0 3 0 C2.773125 0.928125 2.54625 1.85625 2.3125 2.8125 C1.63680017 5.96826848 1.63680017 5.96826848 3.4375 7.875 C3.953125 8.24625 4.46875 8.6175 5 9 C4.67 9.66 4.34 10.32 4 11 C2.99406757 9.8803014 1.9954151 8.7540588 1 7.625 C0.443125 6.99851562 -0.11375 6.37203125 -0.6875 5.7265625 C-2 4 -2 4 -2 2 C-1.34 2 -0.68 2 0 2 C0 1.34 0 0.68 0 0 Z " fill="#4DA752" transform="translate(32,42)"/>
<path d="M0 0 C2.97 0.495 2.97 0.495 6 1 C4.68 1.33 3.36 1.66 2 2 C2 2.66 2 3.32 2 4 C-0.64 4.33 -3.28 4.66 -6 5 C-6 4.01 -6 3.02 -6 2 C-4.02 2 -2.04 2 0 2 C0 1.34 0 0.68 0 0 Z " fill="#585C4E" transform="translate(44,0)"/>
<path d="M0 0 C2.14336161 3.4766338 2.21277626 6.21229195 2.125 10.25 C2.10695313 11.32765625 2.08890625 12.4053125 2.0703125 13.515625 C2.03550781 14.74539062 2.03550781 14.74539062 2 16 C1.67 16 1.34 16 1 16 C0.66048381 14.43883181 0.32867456 12.87598662 0 11.3125 C-0.185625 10.44238281 -0.37125 9.57226562 -0.5625 8.67578125 C-0.99206242 6.04854682 -1.14886126 3.65624311 -1 1 C-0.67 0.67 -0.34 0.34 0 0 Z " fill="#93B83B" transform="translate(279,22)"/>
<path d="M0 0 C2.2109885 0.42793326 3.98119242 0.99059621 6 2 C6 2.66 6 3.32 6 4 C6.99 4 7.98 4 9 4 C8.34 5.32 7.68 6.64 7 8 C6.4225 7.401875 5.845 6.80375 5.25 6.1875 C3.25892393 4.2517316 1.25527003 2.61090717 -1 1 C-0.67 0.67 -0.34 0.34 0 0 Z " fill="#9BBB53" transform="translate(255,19)"/>
<path d="M0 0 C0 0.66 0 1.32 0 2 C-1.0725 2.28875 -2.145 2.5775 -3.25 2.875 C-6.09400364 3.72820109 -8.43508983 4.5636503 -11 6 C-8.60159776 0.46522561 -5.82500047 -0.25888891 0 0 Z " fill="#7EDBEF" transform="translate(193,8)"/>
<path d="M0 0 C1.32 0.99 2.64 1.98 4 3 C3.33333333 4.33333333 2.66666667 5.66666667 2 7 C1.01 7 0.02 7 -1 7 C-1.625 4.625 -1.625 4.625 -2 2 C-1.34 1.34 -0.68 0.68 0 0 Z " fill="#96BB48" transform="translate(242,84)"/>
<path d="M0 0 C3.63 0.66 7.26 1.32 11 2 C9.68 2.99 8.36 3.98 7 5 C6.1957792 7.59855733 6.1957792 7.59855733 6 10 C5.67 10 5.34 10 5 10 C5 8.02 5 6.04 5 4 C2.525 3.01 2.525 3.01 0 2 C0 1.34 0 0.68 0 0 Z " fill="#549E60" transform="translate(17,78)"/>
<path d="M0 0 C2.97 0 5.94 0 9 0 C8.67 0.66 8.34 1.32 8 2 C6.34608154 2.39171753 4.67654729 2.72057545 3 3 C2.01 3.33 1.02 3.66 0 4 C0 2.68 0 1.36 0 0 Z " fill="#C5D49F" transform="translate(231,78)"/>
<path d="M0 0 C5.94 0.33 11.88 0.66 18 1 C18 1.33 18 1.66 18 2 C8.595 2.495 8.595 2.495 -1 3 C-0.67 2.01 -0.34 1.02 0 0 Z " fill="#8AD0E4" transform="translate(165,78)"/>
<path d="M0 0 C0.99 0.66 1.98 1.32 3 2 C2.60196439 4.88575819 2.20990931 5.82189513 -0.0625 7.75 C-1.0215625 8.36875 -1.0215625 8.36875 -2 9 C-1.34 6.03 -0.68 3.06 0 0 Z " fill="#7ED7F2" transform="translate(167,31)"/>
<path d="M0 0 C3.63 0 7.26 0 11 0 C11 0.33 11 0.66 11 1 C9.02 1.33 7.04 1.66 5 2 C5 3.32 5 4.64 5 6 C4.34 6 3.68 6 3 6 C2.01 4.02 1.02 2.04 0 0 Z " fill="#595954" transform="translate(32,0)"/>
<path d="M0 0 C0.99 0.33 1.98 0.66 3 1 C-1.75 5.875 -1.75 5.875 -4 7 C-4 5.02 -4 3.04 -4 1 C-2.68 1.33 -1.36 1.66 0 2 C0 1.34 0 0.68 0 0 Z " fill="#B9756F" transform="translate(131,52)"/>
<path d="M0 0 C2.97 0 5.94 0 9 0 C9.66 1.65 10.32 3.3 11 5 C10.1646875 4.2575 10.1646875 4.2575 9.3125 3.5 C6.57241836 1.72264975 5.20626976 1.67115182 2 2 C1.01 2.33 0.02 2.66 -1 3 C-0.67 2.01 -0.34 1.02 0 0 Z " fill="#2F5C91" transform="translate(175,25)"/>
<path d="M0 0 C0.5775 0.680625 1.155 1.36125 1.75 2.0625 C-0.77053595 3.32276798 -2.1042098 2.98124445 -4.875 2.625 C-6.10089844 2.47224609 -6.10089844 2.47224609 -7.3515625 2.31640625 C-8.29128906 2.19072266 -8.29128906 2.19072266 -9.25 2.0625 C-6.07482482 -1.25659247 -3.98171241 -3.42869679 0 0 Z " fill="#2E6494" transform="translate(184.25,37.9375)"/>
<path d="M0 0 C1.32 0.33 2.64 0.66 4 1 C2.8553125 1.8971875 2.8553125 1.8971875 1.6875 2.8125 C-0.3483575 4.46959332 -2.1978279 6.10297674 -4 8 C-4.33 6.68 -4.66 5.36 -5 4 C-4.360625 3.71125 -3.72125 3.4225 -3.0625 3.125 C-0.84793921 2.17176549 -0.84793921 2.17176549 0 0 Z " fill="#C1716B" transform="translate(90,18)"/>
<path d="M0 0 C4.29 0 8.58 0 13 0 C12.67 0.99 12.34 1.98 12 3 C6.06 2.01 6.06 2.01 0 1 C0 0.67 0 0.34 0 0 Z " fill="#BD6D5F" transform="translate(107,80)"/>
<path d="M0 0 C0.66 0 1.32 0 2 0 C2.625 3.375 2.625 3.375 3 7 C2.34 7.66 1.68 8.32 1 9 C0.34 9 -0.32 9 -1 9 C-0.67 6.03 -0.34 3.06 0 0 Z " fill="#2D8B40" transform="translate(22,102)"/>
<path d="M0 0 C0.66 0.33 1.32 0.66 2 1 C1.67 1.99 1.34 2.98 1 4 C1.66 4 2.32 4 3 4 C3.33 3.34 3.66 2.68 4 2 C3.67 3.65 3.34 5.3 3 7 C1.2925002 5.71937515 -0.37373596 4.38232443 -2 3 C-2 2.34 -2 1.68 -2 1 C-1.34 0.67 -0.68 0.34 0 0 Z " fill="#235E96" transform="translate(156,48)"/>
<path d="M0 0 C-5.75 4 -5.75 4 -8 4 C-8 3.01 -8 2.02 -8 1 C-4.93251126 -0.86240388 -3.40254489 -1.2151946 0 0 Z " fill="#80DAEF" transform="translate(164,25)"/>
<path d="M0 0 C0.93423645 3.01031744 1.04449911 3.86650268 0 7 C-0.99 7.33 -1.98 7.66 -3 8 C-2.74438677 5.6568787 -2.40729228 3.32156597 -2 1 C-1.34 0.67 -0.68 0.34 0 0 Z " fill="#2F8741" transform="translate(48,86)"/>
<path d="M0 0 C2.64752004 2.57784846 4.94432065 4.91648098 7 8 C4.33333333 6.66666667 1.66666667 5.33333333 -1 4 C-0.67 2.68 -0.34 1.36 0 0 Z " fill="#9DBA64" transform="translate(240,79)"/>
<path d="M0 0 C1.485 0.99 1.485 0.99 3 2 C4.9896995 2.39013716 6.99019869 2.73202649 9 3 C8.01 3.495 8.01 3.495 7 4 C7 4.66 7 5.32 7 6 C6.01 6 5.02 6 4 6 C4 5.34 4 4.68 4 4 C2.68 3.34 1.36 2.68 0 2 C0 1.34 0 0.68 0 0 Z " fill="#195480" transform="translate(163,54)"/>
<path d="M0 0 C1.65 0 3.3 0 5 0 C4.01 1.485 4.01 1.485 3 3 C2.34 3 1.68 3 1 3 C1 4.32 1 5.64 1 7 C0.34 6.67 -0.32 6.34 -1 6 C-0.67 4.02 -0.34 2.04 0 0 Z " fill="#3C7FA2" transform="translate(177,44)"/>
<path d="M0 0 C1.32 0.66 2.64 1.32 4 2 C4 2.66 4 3.32 4 4 C1.69 4 -0.62 4 -3 4 C-3 3.34 -3 2.68 -3 2 C-2.01 1.34 -1.02 0.68 0 0 Z " fill="#3777A0" transform="translate(179,18)"/>
<path d="M0 0 C2.4375 0.75 2.4375 0.75 5 2 C5.8125 4.125 5.8125 4.125 6 6 C1.125 3.375 1.125 3.375 0 0 Z " fill="#7ED6ED" transform="translate(173,10)"/>
<path d="M0 0 C0.99 1.32 1.98 2.64 3 4 C2.01 4.99 1.02 5.98 0 7 C-0.66 6.67 -1.32 6.34 -2 6 C-1.34 4.02 -0.68 2.04 0 0 Z " fill="#5D9F6B" transform="translate(49,81)"/>
<path d="M0 0 C1.32 0.33 2.64 0.66 4 1 C3.6875 2.875 3.6875 2.875 3 5 C2.01 5.66 1.02 6.32 0 7 C0.2784375 6.1028125 0.2784375 6.1028125 0.5625 5.1875 C1.22093687 2.83591238 1.22093687 2.83591238 0 0 Z " fill="#DBAEA6" transform="translate(113,35)"/>
<path d="M0 0 C1 2 2 4 3 6 C2.01 6.33 1.02 6.66 0 7 C-0.99 5.02 -1.98 3.04 -3 1 C-2.01 0.67 -1.02 0.34 0 0 Z " fill="#2D6493" transform="translate(174,31)"/>
<path d="M0 0 C2.0625 0.4375 2.0625 0.4375 4 1 C3.34 2.32 2.68 3.64 2 5 C0.68 4.34 -0.64 3.68 -2 3 C-1 1 -1 1 0 0 Z " fill="#D8A298" transform="translate(118,25)"/>
<path d="M0 0 C1.0625 1.8125 1.0625 1.8125 2 4 C1.67 4.99 1.34 5.98 1 7 C0.34 7 -0.32 7 -1 7 C-1.33 7.99 -1.66 8.98 -2 10 C-1.54177532 6.53058454 -1.10868317 3.32604951 0 0 Z " fill="#9FBD61" transform="translate(220,18)"/>
<path d="M0 0 C0 3 0 3 -1.375 4.6875 C-3 6 -3 6 -5 6 C-4.75 4.125 -4.75 4.125 -4 2 C-1.9375 0.75 -1.9375 0.75 0 0 Z " fill="#265576" transform="translate(160,6)"/>
<path d="M0 0 C0 0.66 0 1.32 0 2 C-0.99 2.495 -0.99 2.495 -2 3 C-2.33 3.99 -2.66 4.98 -3 6 C-3.99 5.67 -4.98 5.34 -6 5 C-3.74193548 0 -3.74193548 0 0 0 Z " fill="#30597E" transform="translate(168,2)"/>
<path d="M0 0 C2.97 0.495 2.97 0.495 6 1 C6 1.66 6 2.32 6 3 C3 4 3 4 0 3 C0 2.01 0 1.02 0 0 Z " fill="#A4C15F" transform="translate(254,0)"/>
</svg>
